<?xml version="1.0" encoding="UTF-8"?>
<svg xmlns="http://www.w3.org/2000/svg" viewBox="0 0 678.15 997.46">
  <defs>
    <style>
      .cls-1 {
        fill-rule: evenodd;
      }

      .cls-1, .cls-2 {
        fill: #fff;
      }

      .cls-3 {
        fill: #56d8d1;
      }

      .cls-3, .cls-4 {
        mix-blend-mode: hard-light;
      }

      .cls-5 {
        font-size: 24.42px;
      }

      .cls-5, .cls-6 {
        fill: #777;
        font-family: PingFangSC-Medium-GBpc-EUC-H, 'PingFang SC';
        font-weight: 500;
      }

      .cls-7 {
        stroke: #747569;
        stroke-dasharray: 7.7 7.7;
        stroke-width: 2.57px;
      }

      .cls-7, .cls-4 {
        fill: none;
      }

      .cls-8 {
        fill: #eee;
        opacity: .5;
      }

      .cls-8, .cls-9 {
        isolation: isolate;
      }

      .cls-6 {
        font-size: 21.29px;
      }

      .cls-4 {
        stroke: #56d8d1;
        stroke-miterlimit: 10;
        stroke-width: .97px;
      }
    </style>
  </defs>
  <g class="cls-9">
    <g id="_图层_2" data-name="图层 2">
      <g id="_图层_1-2" data-name="图层 1">
        <g>
          <path class="cls-8" d="M259.01,835.64l-38.94-25.93-6.1-8.32-19.65-46.38-13.64-50.68-4.72-30.45-27.09-13.44-2.82-7.08,16.62-63.31,7.02-14.3,3.7-47.37-7.16-24.03,2.12-32.96,19.31-30.92,18.73-9.64,8.65-25.38,10.08-16.62,20.18-38.85,15.81-18.79,5.07-17.47,13.43-20.26,6.73-17.04,11.41-18.09,14.25-16.9,12.21-32.32,19.61-16.87,16.33-8.78,18.23-23.2,4.3-24.76,13.95-25.87,12.98-15.68,3.99-13.75,20.59-10.18,8.25-1.05,20.27-14.21,29.25-3.99,13.99-5.64,11.07-23.23,8.23-9.33,24.11-10.85,13.29-.42,10.12,4.19,8.59,15.54,11.97,4.4,1.86,10.41,11.49,9.05,8.48.08,15.9,7.37,19.93-.76,8.08,31.12,8.87.34,8.35,8.61-21.09,18.43-23.36,30.02-1.88,22.31,6.55,25.96,7.96,15.69-1.88,25.81-4.78,14.82-10.85,16.19-4.67,24.69-31.95,48.04-2.92,11.8-9.11,10.55-1.02,9.74,5.16,16.71-10.05,25.08-9,46.45-17.21,64.56-.42,16.1-6.31,18.39-4.85,28.25-10.43,14.54-6.74,22.04,4.06,17.01-5.52,9.98-10.41,5.3-4.18,21.47-7.97,18.61-23.09,31.57-7.3,18.95-10.62,13.71-24.48,15.42-12.03,5.46-4.86,19.18-8.87,16.09-17.74,64.91-2.87,52.57.84,24.84-10.86,14.02,1.71,24.94-4.85,4.03-19.45-11.65-10.19,2.41-11.09-3.3-9.01-16.09-4.32-14.35,2.8-9.7-.74-25.08-4.98-25-18.78-34.61-13.92-13.47-19.69-9.41ZM46.85,514.96l-9.8,13.65-9.4-.59-2.99-7.1,1-15.78,7.47,2.17,4.18-7.75,18.08,1.14,6.13,14.33-14.66-.07ZM9.62,493.29l5.2.2-.63,17.76-13.51,1.9,8.73-5.42.21-14.44ZM23.3,481.42l7.72-2.76,7.72,4.37-3.04,12.76-12.41-14.37ZM531.59,767.83l12.36.07-.31,12.84-9.85-2.83-2.2-10.08ZM542.85,937.41l17.31.8-.15,13.58,7.86,4.14-2.68,7.84-16.08-7.68-7.02-7.57.76-11.1Z"/>
          <path class="cls-7" d="M259.01,835.64l-38.94-25.93-6.1-8.32-19.65-46.38-13.64-50.68-4.72-30.45-27.09-13.44-2.82-7.08,16.62-63.31,7.02-14.3,3.7-47.37-7.16-24.03,2.12-32.96,19.31-30.92,18.73-9.64,8.65-25.38,10.08-16.62,20.18-38.85,15.81-18.79,5.07-17.47,13.43-20.26,6.73-17.04,11.41-18.09,14.25-16.9,12.21-32.32,19.61-16.87,16.33-8.78,18.23-23.2,4.3-24.76,13.95-25.87,12.98-15.68,3.99-13.75,20.59-10.18,8.25-1.05,20.27-14.21,29.25-3.99,13.99-5.64,11.07-23.23,8.23-9.33,24.11-10.85,13.29-.42,10.12,4.19,8.59,15.54,11.97,4.4,1.86,10.41,11.49,9.05,8.48.08,15.9,7.37,19.93-.76,8.08,31.12,8.87.34,8.35,8.61-21.09,18.43-23.36,30.02-1.88,22.31,6.55,25.96,7.96,15.69-1.88,25.81-4.78,14.82-10.85,16.19-4.67,24.69-31.95,48.04-2.92,11.8-9.11,10.55-1.02,9.74,5.16,16.71-10.05,25.08-9,46.45-17.21,64.56-.42,16.1-6.31,18.39-4.85,28.25-10.43,14.54-6.74,22.04,4.06,17.01-5.52,9.98-10.41,5.3-4.18,21.47-7.97,18.61-23.09,31.57-7.3,18.95-10.62,13.71-24.48,15.42-12.03,5.46-4.86,19.18-8.87,16.09-17.74,64.91-2.87,52.57.84,24.84-10.86,14.02,1.71,24.94-4.85,4.03-19.45-11.65-10.19,2.41-11.09-3.3-9.01-16.09-4.32-14.35,2.8-9.7-.74-25.08-4.98-25-18.78-34.61-13.92-13.47-19.69-9.41ZM46.85,514.96l-9.8,13.65-9.4-.59-2.99-7.1,1-15.78,7.47,2.17,4.18-7.75,18.08,1.14,6.13,14.33-14.66-.07ZM9.62,493.29l5.2.2-.63,17.76-13.51,1.9,8.73-5.42.21-14.44ZM23.3,481.42l7.72-2.76,7.72,4.37-3.04,12.76-12.41-14.37ZM531.59,767.83l12.36.07-.31,12.84-9.85-2.83-2.2-10.08ZM542.85,937.41l17.31.8-.15,13.58,7.86,4.14-2.68,7.84-16.08-7.68-7.02-7.57.76-11.1Z"/>
          <circle class="cls-3" cx="195.09" cy="638.76" r="17.23"/>
          <circle class="cls-4" cx="195.09" cy="638.76" r="30.75"/>
          <circle class="cls-3" cx="243.03" cy="757.65" r="17.23"/>
          <circle class="cls-4" cx="243.03" cy="757.65" r="30.75"/>
          <text class="cls-5" transform="translate(500.24 180.99)"><tspan x="0" y="0">新北</tspan></text>
          <text class="cls-5" transform="translate(348.88 73.58)"><tspan x="0" y="0">桃園</tspan></text>
          <text class="cls-5" transform="translate(608.88 29.23)"><tspan x="0" y="0">臺北</tspan></text>
          <text class="cls-6" transform="translate(328.84 406.15)"><tspan x="0" y="0">臺中</tspan></text>
          <text class="cls-6" transform="translate(237.86 642.69)"><tspan x="0" y="0">臺南</tspan></text>
          <text class="cls-6" transform="translate(282.66 764.79)"><tspan x="0" y="0">高雄</tspan></text>
          <g>
            <path class="cls-1" d="M238.91,756.47c.42.05.76.38.82.8.03.26-.04.5-.18.69-.27.35-.39.79-.39,1.24v.1c0,.46.16.89.42,1.27.1.15.16.33.16.53s-.06.38-.16.53c-.26.38-.42.81-.42,1.27v.1c0,.44.13.88.39,1.24.14.19.22.43.18.69-.05.42-.4.76-.82.8-.56.06-1.04-.38-1.04-.93,0-.2.06-.38.16-.53.26-.38.42-.81.42-1.27v-.1c0-.46-.16-.89-.42-1.27-.1-.15-.16-.33-.16-.53s.06-.38.16-.53c.26-.38.42-.81.42-1.27v-.1c0-.46-.16-.89-.42-1.27-.1-.15-.16-.33-.16-.53,0-.55.48-.99,1.04-.93Z"/>
            <circle class="cls-2" cx="238.8" cy="749.99" r=".93"/>
            <path class="cls-1" d="M241.58,750.92c-.52,0-.93-.42-.93-.93s.42-.93.93-.93h.93c4.61,0,8.34,3.74,8.34,8.34,0,4.61-3.74,8.34-8.34,8.34h-.93c-.52,0-.93-.42-.93-.93s.42-.93.93-.93h.93c3.58,0,6.47-2.9,6.47-6.47s-2.9-6.47-6.47-6.47h-.93ZM241.64,762.04h.86c2.56,0,4.64-2.08,4.64-4.64s-2.08-4.64-4.64-4.64h-3.72c-.52,0-.93.42-.93.93s.42.93.93.93h3.72c1.53,0,2.77,1.24,2.77,2.77s-1.24,2.77-2.77,2.77h-.86c-.52,0-.93.42-.93.93s.42.93.93.93Z"/>
          </g>
          <g>
            <path class="cls-1" d="M190.75,637.91c.42.05.76.38.82.8.03.26-.04.5-.18.69-.27.35-.39.79-.39,1.24v.1c0,.46.16.89.42,1.27.1.15.16.33.16.53s-.06.38-.16.53c-.26.38-.42.81-.42,1.27v.1c0,.44.13.88.39,1.24.14.19.22.43.18.69-.05.42-.4.76-.82.8-.56.06-1.04-.38-1.04-.93,0-.2.06-.38.16-.53.26-.38.42-.81.42-1.27v-.1c0-.46-.16-.89-.42-1.27-.1-.15-.16-.33-.16-.53s.06-.38.16-.53c.26-.38.42-.81.42-1.27v-.1c0-.46-.16-.89-.42-1.27-.1-.15-.16-.33-.16-.53,0-.55.48-.99,1.04-.93Z"/>
            <circle class="cls-2" cx="190.65" cy="631.43" r=".93"/>
            <path class="cls-1" d="M193.42,632.36c-.52,0-.93-.42-.93-.93s.42-.93.93-.93h.93c4.61,0,8.34,3.74,8.34,8.34,0,4.61-3.74,8.34-8.34,8.34h-.93c-.52,0-.93-.42-.93-.93s.42-.93.93-.93h.93c3.58,0,6.47-2.9,6.47-6.47s-2.9-6.47-6.47-6.47h-.93ZM193.49,643.48h.86c2.56,0,4.64-2.08,4.64-4.64s-2.08-4.64-4.64-4.64h-3.72c-.52,0-.93.42-.93.93s.42.93.93.93h3.72c1.53,0,2.77,1.24,2.77,2.77s-1.24,2.77-2.77,2.77h-.86c-.52,0-.93.42-.93.93s.42.93.93.93Z"/>
          </g>
          <g>
            <circle class="cls-3" cx="520.27" cy="116.94" r="17.23"/>
            <circle class="cls-4" cx="520.27" cy="116.94" r="30.75"/>
            <g>
              <path class="cls-1" d="M516.54,115.86c.42.05.76.38.82.8.03.26-.04.5-.18.69-.27.35-.39.79-.39,1.24v.1c0,.46.16.89.42,1.27.1.15.16.33.16.53s-.06.38-.16.53c-.26.38-.42.81-.42,1.27v.1c0,.44.13.88.39,1.24.14.19.22.43.18.69-.05.42-.4.76-.82.8-.56.06-1.04-.38-1.04-.93,0-.2.06-.38.16-.53.26-.38.42-.81.42-1.27v-.1c0-.46-.16-.89-.42-1.27-.1-.15-.16-.33-.16-.53s.06-.38.16-.53c.26-.38.42-.81.42-1.27v-.1c0-.46-.16-.89-.42-1.27-.1-.15-.16-.33-.16-.53,0-.55.48-.99,1.04-.93Z"/>
              <circle class="cls-2" cx="516.43" cy="109.38" r=".93"/>
              <path class="cls-1" d="M519.21,110.31c-.52,0-.93-.42-.93-.93s.42-.93.93-.93h.93c4.61,0,8.34,3.74,8.34,8.34,0,4.61-3.74,8.34-8.34,8.34h-.93c-.52,0-.93-.42-.93-.93s.42-.93.93-.93h.93c3.58,0,6.47-2.9,6.47-6.47s-2.9-6.47-6.47-6.47h-.93ZM519.27,121.43h.86c2.56,0,4.64-2.08,4.64-4.64s-2.08-4.64-4.64-4.64h-3.72c-.52,0-.93.42-.93.93s.42.93.93.93h3.72c1.53,0,2.77,1.24,2.77,2.77s-1.24,2.77-2.77,2.77h-.86c-.52,0-.93.42-.93.93s.42.93.93.93Z"/>
            </g>
          </g>
          <g>
            <circle class="cls-3" cx="572.95" cy="77.21" r="17.23"/>
            <circle class="cls-4" cx="572.95" cy="77.21" r="30.75"/>
            <g>
              <path class="cls-1" d="M569.22,76.13c.42.05.76.38.82.8.03.26-.04.5-.18.69-.27.35-.39.79-.39,1.24v.1c0,.46.16.89.42,1.27.1.15.16.33.16.53s-.06.38-.16.53c-.26.38-.42.81-.42,1.27v.1c0,.44.13.88.39,1.24.14.19.22.43.18.69-.05.42-.4.76-.82.8-.56.06-1.04-.38-1.04-.93,0-.2.06-.38.16-.53.26-.38.42-.81.42-1.27v-.1c0-.46-.16-.89-.42-1.27-.1-.15-.16-.33-.16-.53s.06-.38.16-.53c.26-.38.42-.81.42-1.27v-.1c0-.46-.16-.89-.42-1.27-.1-.15-.16-.33-.16-.53,0-.55.48-.99,1.04-.93Z"/>
              <circle class="cls-2" cx="569.12" cy="69.65" r=".93"/>
              <path class="cls-1" d="M571.9,70.58c-.52,0-.93-.42-.93-.93s.42-.93.93-.93h.93c4.61,0,8.34,3.74,8.34,8.34,0,4.61-3.74,8.34-8.34,8.34h-.93c-.52,0-.93-.42-.93-.93s.42-.93.93-.93h.93c3.58,0,6.47-2.9,6.47-6.47s-2.9-6.47-6.47-6.47h-.93ZM571.96,81.7h.86c2.56,0,4.64-2.08,4.64-4.64s-2.08-4.64-4.64-4.64h-3.72c-.52,0-.93.42-.93.93s.42.93.93.93h3.72c1.53,0,2.77,1.24,2.77,2.77s-1.24,2.77-2.77,2.77h-.86c-.52,0-.93.42-.93.93s.42.93.93.93Z"/>
            </g>
          </g>
          <g>
            <circle class="cls-3" cx="449.95" cy="119.75" r="17.23"/>
            <circle class="cls-4" cx="449.95" cy="119.75" r="30.75"/>
            <g>
              <path class="cls-1" d="M446.22,118.67c.42.05.76.38.82.8.03.26-.04.5-.18.69-.27.35-.39.79-.39,1.24v.1c0,.46.16.89.42,1.27.1.15.16.33.16.53s-.06.38-.16.53c-.26.38-.42.81-.42,1.27v.1c0,.44.13.88.39,1.24.14.19.22.43.18.69-.05.42-.4.76-.82.8-.56.06-1.04-.38-1.04-.93,0-.2.06-.38.16-.53.26-.38.42-.81.42-1.27v-.1c0-.46-.16-.89-.42-1.27-.1-.15-.16-.33-.16-.53s.06-.38.16-.53c.26-.38.42-.81.42-1.27v-.1c0-.46-.16-.89-.42-1.27-.1-.15-.16-.33-.16-.53,0-.55.48-.99,1.04-.93Z"/>
              <circle class="cls-2" cx="446.12" cy="112.19" r=".93"/>
              <path class="cls-1" d="M448.89,113.13c-.52,0-.93-.42-.93-.93s.42-.93.93-.93h.93c4.61,0,8.34,3.74,8.34,8.34,0,4.61-3.74,8.34-8.34,8.34h-.93c-.52,0-.93-.42-.93-.93s.42-.93.93-.93h.93c3.58,0,6.47-2.9,6.47-6.47s-2.9-6.47-6.47-6.47h-.93ZM448.96,124.24h.86c2.56,0,4.64-2.08,4.64-4.64s-2.08-4.64-4.64-4.64h-3.72c-.52,0-.93.42-.93.93s.42.93.93.93h3.72c1.53,0,2.77,1.24,2.77,2.77s-1.24,2.77-2.77,2.77h-.86c-.52,0-.93.42-.93.93s.42.93.93.93Z"/>
            </g>
          </g>
          <g>
            <circle class="cls-3" cx="287.14" cy="398.9" r="17.23"/>
            <circle class="cls-4" cx="287.14" cy="398.9" r="30.75"/>
            <g>
              <path class="cls-1" d="M283.41,397.82c.42.05.76.38.82.8.03.26-.04.5-.18.69-.27.35-.39.79-.39,1.24v.1c0,.46.16.89.42,1.27.1.15.16.33.16.53s-.06.38-.16.53c-.26.38-.42.81-.42,1.27v.1c0,.44.13.88.39,1.24.14.19.22.43.18.69-.05.42-.4.76-.82.8-.56.06-1.04-.38-1.04-.93,0-.2.06-.38.16-.53.26-.38.42-.81.42-1.27v-.1c0-.46-.16-.89-.42-1.27-.1-.15-.16-.33-.16-.53s.06-.38.16-.53c.26-.38.42-.81.42-1.27v-.1c0-.46-.16-.89-.42-1.27-.1-.15-.16-.33-.16-.53,0-.55.48-.99,1.04-.93Z"/>
              <circle class="cls-2" cx="283.3" cy="391.34" r=".93"/>
              <path class="cls-1" d="M286.08,392.28c-.52,0-.93-.42-.93-.93s.42-.93.93-.93h.93c4.61,0,8.34,3.74,8.34,8.34,0,4.61-3.74,8.34-8.34,8.34h-.93c-.52,0-.93-.42-.93-.93s.42-.93.93-.93h.93c3.58,0,6.47-2.9,6.47-6.47s-2.9-6.47-6.47-6.47h-.93ZM286.14,403.39h.86c2.56,0,4.64-2.08,4.64-4.64s-2.08-4.64-4.64-4.64h-3.72c-.52,0-.93.42-.93.93s.42.93.93.93h3.72c1.53,0,2.77,1.24,2.77,2.77s-1.24,2.77-2.77,2.77h-.86c-.52,0-.93.42-.93.93s.42.93.93.93Z"/>
            </g>
          </g>
        </g>
      </g>
    </g>
  </g>
</svg>