<?xml version="1.0" encoding="UTF-8"?>
<svg id="_图层_2" data-name="图层 2" xmlns="http://www.w3.org/2000/svg" viewBox="0 0 85.85 85.85">
  <defs>
    <style>
      .cls-1 {
        fill: #56d8d1;
      }
    </style>
  </defs>
  <g id="_图层_1-2" data-name="图层 1">
    <g>
      <path class="cls-1" d="M54.92,19.99c-4,0-8.14.74-11.98,2.13-3.44,1.25-7.08,1.91-10.54,1.91h-.5c-3.08-.06-5.9-.65-8.37-1.77l-1.92,2.95c3.03,1.38,6.46,2.12,10.23,2.19h.64c3.94,0,8.08-.74,11.96-2.15,3.39-1.24,7.01-1.89,10.48-1.89,2.98,0,5.71.47,8.11,1.41l1.71-3.01c-2.94-1.17-6.24-1.77-9.82-1.77ZM42.94,35.11c-3.59,1.31-7.41,1.97-11.04,1.9-3.07-.06-5.89-.66-8.37-1.77l-1.92,2.94c3.02,1.39,6.46,2.12,10.23,2.19,4.18.09,8.53-.66,12.6-2.14,6.19-2.26,13.31-2.51,18.59-.47l1.71-3.03c-6.26-2.46-14.61-2.25-21.8.38ZM54.91,45.95c-4,0-8.14.74-11.97,2.14-3.44,1.25-7.08,1.91-10.54,1.91h-.5c-3.1-.07-5.91-.66-8.37-1.77l-1.92,2.93c3.04,1.39,6.48,2.13,10.23,2.19.23.01.46.01.69.01,3.9,0,8.02-.74,11.91-2.15,6.18-2.26,13.31-2.51,18.59-.47l1.72-3.04c-2.92-1.15-6.23-1.74-9.84-1.75ZM54.91,58.08c-4,0-8.14.74-11.97,2.14-3.44,1.25-7.08,1.91-10.54,1.91h-.5c-3.1-.07-5.91-.66-8.37-1.76l-1.92,2.92c3.04,1.4,6.48,2.13,10.23,2.19.23.01.46.01.69.01,3.9,0,8.02-.74,11.91-2.15,6.19-2.26,13.31-2.51,18.59-.46l1.72-3.04c-2.92-1.16-6.23-1.75-9.84-1.76Z"/>
      <path class="cls-1" d="M42.92,85.85C19.26,85.85,0,66.59,0,42.92S19.26,0,42.92,0s42.92,19.26,42.92,42.92-19.26,42.93-42.92,42.93ZM42.92,3.1C20.96,3.1,3.1,20.96,3.1,42.92s17.87,39.83,39.83,39.83,39.83-17.87,39.83-39.83S64.89,3.1,42.92,3.1Z"/>
    </g>
  </g>
</svg>