<?xml version="1.0" encoding="UTF-8"?>
<svg id="_图层_2" data-name="图层 2" xmlns="http://www.w3.org/2000/svg" viewBox="0 0 47.57 47.57">
  <defs>
    <style>
      .cls-1 {
        fill: #d20020;
      }
    </style>
  </defs>
  <g id="_图层_1-2" data-name="图层 1">
    <g>
      <path class="cls-1" d="M46.73,20.45c-.6-1.21-1.62-2.22-2.83-2.83-1.21-.6-1.82-2.22-1.41-3.44v-.4c1.21-3.64-.81-7.48-4.45-8.7-1.42-.4-2.83-.4-4.25,0h-.4c-1.42.41-2.83-.2-3.44-1.41C28.13.24,23.89-.98,20.45.84c-1.21.6-2.02,1.62-2.83,2.83-.6,1.21-2.22,1.82-3.44,1.41h-.4c-3.64-1.21-7.48.81-8.7,4.45-.4,1.42-.4,2.83,0,4.25v.4c.41,1.42-.2,2.83-1.41,3.44C.24,19.44-.98,23.69.84,27.12c.61,1.21,1.62,2.02,2.83,2.83,1.21.6,1.82,2.22,1.41,3.44v.4c-1.21,3.64.81,7.48,4.45,8.7,1.42.4,2.83.4,4.25,0h.4c1.42-.41,2.83.2,3.44,1.41,1.82,3.44,6.07,4.65,9.5,2.83,1.21-.61,2.02-1.62,2.83-2.83.6-1.21,2.22-1.82,3.44-1.41h.4c3.64,1.21,7.48-.81,8.7-4.45.4-1.42.4-2.83,0-4.25v-.4c-.41-1.42.2-2.83,1.41-3.44,3.44-1.82,4.65-6.07,2.83-9.5ZM43.3,25.1c-.2.6-.6,1.01-1.21,1.21-3.03,1.62-4.24,5.05-3.23,8.09v.4c.41,1.62-.41,3.24-2.02,3.64-.61.2-1.21.2-1.82,0h-.4c-3.24-1.01-6.67.41-8.09,3.23-.81,1.42-2.63,2.02-4.05,1.21-.4-.2-.81-.6-1.21-1.21-1.21-2.22-3.44-3.64-6.06-3.64-.61,0-1.42,0-2.02.2h-.4c-1.62.41-3.24-.4-3.64-2.02-.2-.6-.2-1.21,0-1.82v-.2c1.01-3.23-.41-6.67-3.23-8.09-1.42-.81-2.02-2.63-1.21-4.05.2-.4.6-.81,1.21-1.21,2.83-1.62,4.24-5.06,3.23-8.09v-.41c-.41-1.62.4-3.23,2.02-3.64.61-.2,1.21-.2,1.82,0h.41c3.23,1.01,6.67-.41,8.09-3.23.81-1.42,2.63-2.02,4.04-1.21.4.2.81.6,1.21,1.21,1.62,3.03,5.06,4.24,8.09,3.44h.41c1.62-.41,3.23.41,3.64,2.02.2.61.2,1.21,0,1.82v.2c-1.01,3.24.41,6.67,3.23,8.09,1.42.81,2.02,2.63,1.21,4.05Z"/>
      <g>
        <path class="cls-1" d="M24.47,11.75l-.45.64c-.77.55-1.6,1.11-2.5,1.68-.01,1.16-.2,2.04-.57,2.65-.27.39-.56.62-.85.67-.4.04-.92-.16-1.55-.59l.31-1c.15.14.28.26.4.35.25.15.43.22.55.23.12,0,.23-.08.33-.22.4-.58.56-1.42.48-2.54.98-.58,1.82-1.15,2.51-1.68l-1.17-.81-4.76,6.81-.79-.55,5.29-7.57,2.76,1.93ZM22.9,16.3l-1.85,2.65c.55.19,1.12.33,1.71.43l-.34.88c-.8-.18-1.76-.47-2.88-.88l.3-.84c.17.04.3.02.38-.09l4.54-6.5,3.84,2.68-2.66,3.8-1.52-1.06c-.22.49-.34,1-.4,1.52.53.04,1.11-.03,1.73-.2l.16.88c-.65.18-1.29.22-1.91.15.03.72.22,1.46.57,2.21l-.95.4c-.76-1.88-.74-3.71.08-5.46l-.8-.56ZM23.42,15.56l2.25,1.57.54-.77-2.25-1.57-.54.77ZM27.28,14.83l-2.25-1.57-.55.79,2.25,1.57.55-.79Z"/>
        <path class="cls-1" d="M28.07,24.18l-.77-.54.37-.54-.99-.69-.52.74-.77-.54,4.59-6.58,2.53,1.76-4.45,6.37ZM28.2,22.36l1.28-1.84-.99-.69-1.28,1.84.99.69ZM29.99,19.79l1.25-1.79-.99-.69-1.25,1.79.99.69ZM33.31,23.47l.42-.6.78.55-.42.6.94.65-.53.76-.94-.65-1.44,2.07c-.44.63-.94.76-1.47.39l-1.03-.72.36-.88c.3.26.59.5.89.71.2.14.4.06.61-.23l1.31-1.87-2.68-1.87.53-.76,2.68,1.87ZM30.79,25.06h-.95c.04-.58.02-1.25-.05-2.02l.9.05c.09.78.12,1.44.1,1.97ZM35.94,19.4l-.56.8,1.5,1.05-.52.74-1.5-1.05-.56.81,1.95,1.36-.52.75-4.68-3.27.52-.75,1.95,1.36.56-.81-1.53-1.07.52-.74,1.53,1.07.56-.8.78.55Z"/>
        <path class="cls-1" d="M17.12,20.61c-.6.49-1.23.93-1.89,1.3l-4.06,5.81-.77-.54,3.12-4.47c-.38.14-.77.27-1.16.38l.32-1.03c1.39-.47,2.71-1.22,3.97-2.26l.47.82ZM19.32,28.88l-.77.13c0-.39-.06-.84-.18-1.32-.27.26-.48.38-.65.37-.18-.03-.41-.12-.67-.31l-1.04-.72c-.16.04-.28.08-.41.12l2.42,1.69-.37.54c-.47.17-1.02.23-1.64.18.5.65,1.12,1.28,1.89,1.86l-.64.54c-1-.79-1.77-1.64-2.31-2.57-.89-.21-1.92-.59-3.06-1.14l.18-.84c.9.45,1.71.8,2.44,1.04-.15-.37-.27-.74-.35-1.12-.37,0-.79-.03-1.25-.08l.04-.84c.5.12,1.02.17,1.57.15.32-.03.63-.08.96-.15-.03-.17.02-.33.12-.48l.49-.71.68.48-.39.56c-.07.1-.06.2.06.28l.88.61c.1.07.2.1.28.09.1,0,.24-.1.42-.31l.32.44.63-.11c.19.59.3,1.12.36,1.62ZM15.68,25.62c-.53.18-1.11.27-1.72.27l-.03-.79c.56.04,1.08-.03,1.58-.16l.17.69ZM19.9,26.77l.68.47-.73,1.05-.74-.52.34-.49-1.81-1.26c.07.29.11.57.11.84l-.65-.11c0-.35-.02-.67-.08-.97l.48.15-2.06-1.44-.34.49-.75-.52.73-1.05.67.47,1.43-2.04,1.43,1c.1-.07.19-.13.27-.2l-2-1.4.44-.63,5.14,3.59-.44.63-2.33-1.63c-.09.07-.18.14-.27.2l1.91,1.33-1.43,2.04ZM16.77,28.8l-1.84-1.28c.13.41.31.81.52,1.2.49.09.94.12,1.32.09ZM19.17,26.26l.17-.25-2.68-1.87-.17.25,2.68,1.87ZM19.63,25.61l.17-.24-2.68-1.87-.17.24,2.68,1.87ZM20.08,24.96l.18-.26-2.68-1.87-.18.26,2.68,1.87Z"/>
        <path class="cls-1" d="M21.17,31.42c-.72.59-1.43,1.02-2.17,1.3l-.37-.89c.72-.25,1.35-.6,1.92-1.06l.62.65ZM26.73,27.63l.36-.52.8.56-.36.52,3.39,2.37-.48.68-3.39-2.37-.26.38,2.67,1.87-1.78,2.54-.3-.21c.18.68.29,1.27.35,1.74h-.88c-.02-.27-.04-.54-.09-.83-1.38-.83-3.54-2.21-6.47-4.14l.39-.78c1.19.8,2.26,1.54,3.25,2.2l.29-.41-2.67-1.87,1.78-2.54,2.67,1.87.26-.38-3.39-2.37.48-.68,3.39,2.37ZM21.04,34.39c-.56-.39-.65-.86-.27-1.4l.99-1.42.78.54-.87,1.25c-.11.16-.08.31.13.45l1.88,1.31c.12.08.24.11.34.07.13-.04.34-.24.65-.62l.57.75c-.51.6-.89.91-1.13.93-.23.02-.49-.08-.8-.29l-2.26-1.58ZM24.92,30.21l-1.91-1.33-.29.42,1.91,1.33.29-.42ZM24.16,34.42h-.9c-.02-.49-.1-1.06-.24-1.73l.86.05c.15.67.24,1.23.27,1.68ZM25.28,29.69l.29-.42-1.91-1.33-.29.42,1.91,1.33ZM26.5,32.99h.25s-1.73-1.2-1.73-1.2l-.27.39c.68.45,1.3.84,1.84,1.2l-.08-.39ZM27.62,32.1l-1.91-1.33-.29.42,1.91,1.33.29-.42ZM26.53,37.11l-.94-.02c.05-.72.03-1.58-.07-2.57l.88.04c.12,1.01.16,1.86.12,2.54ZM26.08,30.25l1.91,1.33.29-.42-1.91-1.33-.29.42Z"/>
      </g>
    </g>
  </g>
</svg>