<?xml version="1.0" encoding="UTF-8"?>
<svg id="_图层_2" data-name="图层 2" xmlns="http://www.w3.org/2000/svg" viewBox="0 0 52.73 67.68">
  <defs>
    <style>
      .cls-1 {
        fill-rule: evenodd;
      }

      .cls-1, .cls-2 {
        fill: #fff;
      }
    </style>
  </defs>
  <g id="_图层_5" data-name="图层 5">
    <g>
      <path class="cls-1" d="M4.3,30.07c1.7.19,3.1,1.55,3.32,3.25.14,1.06-.16,2.04-.74,2.8-1.09,1.43-1.6,3.22-1.6,5.01v.42c0,1.86.65,3.63,1.7,5.16.42.61.66,1.35.66,2.14s-.24,1.53-.66,2.14c-1.05,1.53-1.7,3.3-1.7,5.16v.42c0,1.8.51,3.58,1.6,5.01.58.76.87,1.74.74,2.8-.22,1.7-1.62,3.07-3.32,3.25-2.29.25-4.22-1.53-4.22-3.76,0-.79.24-1.53.66-2.14,1.05-1.53,1.7-3.3,1.7-5.16v-.42c0-1.86-.65-3.63-1.7-5.16-.42-.61-.66-1.35-.66-2.14s.24-1.53.66-2.14c1.05-1.53,1.7-3.3,1.7-5.16v-.42c0-1.86-.65-3.63-1.7-5.16-.42-.61-.66-1.35-.66-2.14,0-2.23,1.93-4.02,4.22-3.76Z"/>
      <circle class="cls-2" cx="3.86" cy="3.79" r="3.79"/>
      <path class="cls-1" d="M15.13,7.58c-2.09,0-3.79-1.7-3.79-3.79s1.7-3.79,3.79-3.79h3.76c18.69,0,33.84,15.15,33.84,33.84,0,18.69-15.15,33.84-33.84,33.84h-3.76c-2.09,0-3.79-1.7-3.79-3.79s1.7-3.79,3.79-3.79h3.76c14.5,0,26.26-11.76,26.26-26.26S33.39,7.58,18.89,7.58h-3.76ZM15.38,52.65h3.51c10.39,0,18.81-8.42,18.81-18.81S29.28,15.02,18.89,15.02H3.79c-2.09,0-3.79,1.7-3.79,3.79s1.7,3.79,3.79,3.79h15.1c6.21,0,11.24,5.03,11.24,11.24s-5.03,11.24-11.24,11.24h-3.51c-2.09,0-3.79,1.7-3.79,3.79s1.7,3.79,3.79,3.79Z"/>
    </g>
  </g>
</svg>