<?xml version="1.0" encoding="UTF-8"?>
<svg id="_图层_2" data-name="图层 2" xmlns="http://www.w3.org/2000/svg" viewBox="0 0 127.5 127.5">
  <defs>
    <style>
      .cls-1 {
        fill: #56d8d1;
      }

      .cls-2 {
        fill: #282829;
      }
    </style>
  </defs>
  <g id="_图层_1-2" data-name="图层 1">
    <g>
      <path class="cls-2" d="M0,63.75c0,35.21,28.54,63.75,63.75,63.75s63.75-28.54,63.75-63.75S98.96,0,63.75,0,0,28.54,0,63.75Z"/>
      <path class="cls-1" d="M90.57,37.19h-11.86v-2.49c0-1.6-1.32-2.93-2.93-2.93h-22.09c-1.6,0-2.93,1.32-2.93,2.93v2.49h-12c-.77-.06-2.8.63-2.93,2.93v54.27c0,1.6,1.32,2.93,2.93,2.93h51.97c1.87.07,2.86-1.98,2.79-2.93v-54.27c.07-.68-.62-2.84-2.94-2.93h0ZM56.61,37.63h16.39v4.98h-16.39s0-4.98,0-4.98ZM87.8,91.61h-46.27v-48.56h9.22v2.34c.18,2.42,2.2,2.93,2.93,2.93h22.25c1.46,0,2.79-1.32,2.79-2.93v-2.34h9.08v48.56h.01s0,0,0,0Z"/>
      <path class="cls-1" d="M54.12,76.76h21.08c1.6,0,2.93-1.32,2.93-2.93s-1.32-2.93-2.93-2.93h-21.08c-1.6,0-2.93,1.32-2.93,2.93,0,1.6,1.32,2.93,2.93,2.93ZM75.64,80.09h-21.08c-1.6,0-2.93,1.32-2.93,2.93s1.32,2.93,2.93,2.93h21.08c1.46,0,2.79-1.32,2.93-2.93,0-1.6-1.31-2.93-2.93-2.93ZM60.27,61.4h1.6v1.62c0,1.6,1.32,2.93,2.93,2.93s2.93-1.32,2.93-2.93v-1.6h1.6c1.6,0,2.93-1.32,2.93-2.93s-1.32-2.93-2.93-2.93h-1.6v-1.6c0-1.6-1.32-2.93-2.93-2.93s-2.93,1.32-2.93,2.93v1.6h-1.6c-1.6,0-2.93,1.32-2.93,2.93,0,1.59,1.31,2.91,2.93,2.91Z"/>
    </g>
  </g>
</svg>