<?xml version="1.0" encoding="UTF-8"?>
<svg id="_图层_2" data-name="图层 2" xmlns="http://www.w3.org/2000/svg" viewBox="0 0 64.78 52.37">
  <defs>
    <style>
      .cls-1 {
        fill: #56d8d1;
      }
    </style>
  </defs>
  <g id="_图层_1-2" data-name="图层 1">
    <g>
      <path class="cls-1" d="M50.33,15.88c-6.1-.05-11.57-3.77-13.85-9.42-.95-2.32.1-4.98,2.38-6.02,2.26-1.02,4.92-.02,5.94,2.24.03.07.06.13.09.2,1.28,3.07,4.81,4.51,7.88,3.23,1.46-.61,2.62-1.77,3.23-3.23.87-2.3,3.45-3.46,5.75-2.58.09.04.18.07.27.11,2.31,1.02,3.38,3.69,2.41,6.02-2.3,5.75-7.9,9.5-14.09,9.45ZM14.2,15.88c-6.1-.05-11.57-3.77-13.85-9.42C-.6,4.14.45,1.48,2.73.44c2.26-1.02,4.92-.02,5.94,2.24.03.07.06.13.09.2,1.28,3.07,4.81,4.51,7.88,3.23,1.46-.61,2.62-1.77,3.23-3.23.87-2.3,3.45-3.46,5.75-2.58.09.04.18.07.27.11,2.31,1.02,3.38,3.69,2.41,6.02-2.3,5.75-7.9,9.5-14.09,9.45Z"/>
      <path class="cls-1" d="M15.74,52.37c-.6,0-1.19-.13-1.75-.36-2.31-1.02-3.38-3.69-2.41-6.02,4.56-11.48,17.57-17.09,29.05-12.52,5.52,2.19,9.94,6.49,12.29,11.95,1.01,2.28.02,4.95-2.23,6.02-2.22,1.06-4.88.12-5.94-2.11-.03-.06-.06-.12-.08-.18-2.96-6.82-10.89-9.94-17.71-6.98-3.25,1.41-5.82,4.05-7.13,7.34-.67,1.69-2.28,2.82-4.09,2.86h0Z"/>
    </g>
  </g>
</svg>