<?xml version="1.0" encoding="UTF-8"?>
<svg id="_图层_2" data-name="图层 2" xmlns="http://www.w3.org/2000/svg" viewBox="0 0 878.33 867.35">
  <defs>
    <style>
      .cls-1 {
        fill: none;
      }

      .cls-2 {
        fill: #00ffec;
      }
    </style>
  </defs>
  <g id="_图层_1-2" data-name="图层 1">
    <g>
      <path class="cls-2" d="M25.4,380.73c55.02-16.39,108.47-37.98,159.56-64.15,25.41-13.02,49.72-28.73,76.09-39.79,13.02-5.46,26.7-9.41,40.77-10.88,13.9-1.45,27.91-1.01,41.81.15,28.3,2.36,56.46,7.76,84.96,6.93,28.1-.82,54.74-9.67,82.15-14.84,13.18-2.48,26.7-3.92,40.09-2.44s26.78,7.09,38.92,13.92c12.48,7.03,24.49,14.86,36.98,21.89,12.28,6.91,24.8,13.39,37.52,19.47,50.55,24.18,103.84,42.04,157.91,56.49,6.65,1.77,13.31,3.5,19.97,5.18s9.64-8.73,2.88-10.44c-54.67-13.82-108.83-30.48-160.33-53.63-25.97-11.67-51.02-25.06-75.31-39.9-11.96-7.3-24.08-14.57-37.37-19.21-12.93-4.51-26.83-5.79-40.44-4.92-28,1.79-54.66,11.44-82.25,15.74-28.41,4.43-57.1.29-85.4-2.98-27.96-3.24-56.56-5.53-84.13,1.63-27.61,7.17-52.26,22.39-77.05,35.96-51.04,27.94-104.61,51.23-159.99,69.11-6.71,2.17-13.45,4.25-20.21,6.26s-3.82,12.43,2.88,10.44h0Z"/>
      <path class="cls-2" d="M25.31,520.86c64.14-9.24,123.95,28.15,176.43,59.77,27.17,16.36,54.48,32.69,83.92,44.69,29.05,11.84,59.9,21.3,90.81,26.73,28.5,5,57.72,5.82,86.59,4.98,26.2-.76,52.47-3.58,77.99-9.7,25.2-6.05,49.63-15.48,72.14-28.35,11.93-6.82,23.24-14.61,34.02-23.12,11.29-8.92,21.19-19.32,32.25-28.47,21.56-17.83,46.77-30.8,70.75-44.97,12.22-7.22,23.81-15.69,36.77-21.58,13.55-6.17,28.21-9.84,42.85-12.28,7.17-1.19,14.38-2.03,21.61-2.72,6.87-.66,6.94-11.49,0-10.83-29.89,2.85-60.15,8.72-85.84,25.09-23.52,14.98-48.28,27.96-71.55,43.33-11.35,7.5-22.27,15.67-32.07,25.12-10.51,10.13-21.65,19.56-33.6,27.95-21.69,15.24-45.57,27.07-70.85,35.04s-50.01,11.96-75.64,13.75c-27.79,1.94-56.28,1.98-83.99-1.02-31.7-3.43-62.45-12.53-92.43-23.06-30.13-10.59-57.91-25.8-85.27-42.12-53.35-31.81-109.9-69.88-174.4-70.37-7.84-.06-15.61.6-23.37,1.71-2.92.42-4.46,4.09-3.78,6.66.82,3.12,3.78,4.2,6.66,3.78h0Z"/>
      <rect class="cls-1" width="878.33" height="867.35"/>
    </g>
  </g>
</svg>