<?xml version="1.0" encoding="UTF-8"?>
<svg id="_图层_2" data-name="图层 2" xmlns="http://www.w3.org/2000/svg" viewBox="0 0 102.8 41.6">
  <defs>
    <style>
      .cls-1 {
        fill: #6e6f6c;
      }
    </style>
  </defs>
  <g id="_图层_1-2" data-name="图层 1">
    <g>
      <path class="cls-1" d="M102.53,28.97c-.46-1.23-.92-2.45-1.39-3.68-.24-.65-.47-1.29-.71-1.94-.26-.71-.52-1.42-.78-2.13-.16-.41-.32-.83-.48-1.25-.18-.48-.37-.96-.55-1.43-.13-.36-.25-.73-.37-1.09-.11-.33-.22-.66-.34-.99-.18-.49-.37-.98-.55-1.47-.21-.57-.42-1.13-.62-1.7-.18-.49-.35-.99-.52-1.47-.2-.58-.4-1.16-.61-1.74-.25-.7-.53-1.39-.8-2.09l-.28-.72h-1.53c-1.26,0-2.52,0-3.78,0-.18,0-.19,0-.25.18-.29.94-.62,1.89-.96,2.8-.22.6-.45,1.19-.67,1.78-.25.64-.49,1.27-.73,1.91-.23.63-.45,1.27-.66,1.9-.21.61-.41,1.23-.64,1.84-.23.64-.47,1.27-.71,1.9-.23.6-.45,1.2-.68,1.79-.36,1-.72,2.02-1.08,3.02l-.65,1.86c-.32.88-.63,1.75-.96,2.65l-.26.73h4.92l.04-.16c.1-.32.19-.64.29-.96l.39-1.2.48-1.48c.1-.33.32-.76.97-.76h.02c1.85.02,3.7.02,5.55,0h2.62l.27.9c.13.44.25.86.39,1.27l.26.76c.16.46.33.94.45,1.43.05.17.08.2.08.2,0,0,.05.02.15.02,1.04,0,2.07,0,3.12,0h1.81c-.1-.22-.18-.45-.27-.67ZM88.73,21.13l3.04-9.49,3.16,9.49h-6.2Z"/>
      <path class="cls-1" d="M.01,14.97C.01,13.04,0,11.11.03,9.18c.01-.58.15-1.17.28-1.75.11-.51.55-.76.98-.87.82-.21,1.67-.3,2.5-.48,1.07-.24,2.13-.52,3.19-.78.68-.17,1.39-.26,2.05-.49,1.68-.6,3.35-1.22,4.88-2.14,1.22-.74,2.43-1.51,3.65-2.26,1.09-.67,2.02-.42,2.9.21,1.46,1.04,2.94,2.06,4.59,2.78,1.1.48,2.23.88,3.37,1.26.77.26,1.57.44,2.36.63.85.21,1.7.43,2.56.61.46.1.94.09,1.39.2.77.19,1.56.35,2.27.69.48.23.62.84.67,1.37.37,3.91.12,7.82.16,11.74,0,.86-.2,1.72-.37,2.57-.19.91-.43,1.81-.71,2.7-.43,1.38-.93,2.72-1.68,3.97-.98,1.63-2.12,3.1-3.51,4.36-1.6,1.46-3.3,2.82-5.15,3.96-2.06,1.27-4.11,2.56-6.2,3.78-.92.54-1.89.49-2.84-.08-1-.6-2.06-1.1-3.05-1.72-1.38-.88-2.75-1.79-4.07-2.75-1.23-.89-2.45-1.81-3.59-2.81-.9-.79-1.71-1.7-2.47-2.63-.56-.69-1.04-1.46-1.45-2.25-.63-1.24-1.22-2.51-1.73-3.81-.32-.81-.44-1.7-.68-2.54-.45-1.59-.25-3.22-.29-4.84-.02-.94,0-1.89,0-2.83h0ZM3.81,9.97c0,.11-.02.25-.02.4.11,3.68-.26,7.38.29,11.05.07.45.08.91.2,1.35.23.88.47,1.75.79,2.6.49,1.29,1.13,2.5,2.06,3.54.68.75,1.34,1.53,2.09,2.2.88.78,1.84,1.48,2.78,2.18.75.56,1.52,1.11,2.31,1.62,1.15.73,2.34,1.42,3.5,2.14.57.35,1.12.6,1.78.16.42-.28.91-.46,1.33-.73,1.34-.86,2.67-1.74,4-2.62.62-.42,1.24-.85,1.83-1.31.53-.41.98-.92,1.52-1.32,1.13-.83,1.99-1.91,2.76-3.03.65-.96,1.11-2.05,1.63-3.09.65-1.28.87-2.69,1.04-4.09.16-1.27.16-2.56.18-3.85.03-1.77,0-3.53,0-5.3,0-.58.01-1.17-.01-1.75,0-.14-.11-.37-.23-.41-.32-.1-.66-.13-1-.19-.67-.11-1.35-.17-2.01-.32-1.01-.23-2.01-.49-3-.78-.93-.27-1.85-.57-2.76-.9-1.87-.68-3.54-1.72-5.19-2.8-.64-.42-1.08-.39-1.73,0-1.05.63-2.11,1.27-3.21,1.8-1.02.5-2.11.87-3.17,1.28-.69.27-1.38.56-2.08.77-.87.26-1.76.44-2.65.65-.99.24-1.98.48-3.05.74Z"/>
      <path class="cls-1" d="M80.65,15.79c-.07-.25-.13-.5-.18-.76-.09-.39-.17-.76-.31-1.09-.88-2.07-2.32-3.71-4.25-4.84-1.04-.61-2.14-1.07-3.38-1.4-1.11-.3-2.25-.45-3.52-.44-1.74,0-3.47,0-5.21,0h-2.19v22.37h.73c.79,0,1.56,0,2.33,0h.46c.41,0,.81,0,1.22,0,1.99.02,4.06.05,6.01-.49l.19-.05c.76-.21,1.56-.42,2.26-.76.8-.38,1.64-.88,2.53-1.51.76-.54,1.41-1.28,2.1-2.41.57-.94.91-1.76,1.05-2.59.06-.29.12-.58.18-.87.12-.54.23-1.06.26-1.58.1-1.47.02-2.59-.29-3.6ZM76.03,20.21c-.22.86-.45,1.55-.75,2.15-.61,1.23-1.62,2.12-3.08,2.71-1.4.56-2.85.63-4.28.63h-1.77v-14.35h.4c.4,0,.8-.02,1.19-.02.88-.02,1.79-.04,2.69.05,1.51.16,2.84.79,3.86,1.82.75.75,1.24,1.64,1.46,2.63.23,1.01.37,1.86.45,2.66.05.53,0,1.13-.16,1.73Z"/>
      <polygon class="cls-1" points="49.13 11.33 49.13 17.03 56.79 17.03 56.79 20.78 49.12 20.78 49.12 29.62 44.43 29.62 44.43 7.3 58.23 7.3 58.23 11.33 49.13 11.33"/>
      <path class="cls-1" d="M16.38,24.06c1.85-1.86,3.69-3.73,5.55-5.58,1.28-1.28,2.57-2.57,3.88-3.83.41-.39.8-.83,1.41-.98.59-.14,1.05.14,1.51.41,1.01.59.95,2.33.19,3.05-3.12,3.02-6.17,6.12-9.24,9.19-.54.54-1.1,1.08-1.64,1.62-.8.79-1.74.84-2.74.48-.13-.05-.24-.16-.34-.26-2.03-2.02-4.07-4.03-6.08-6.06-.88-.9-.61-2.58.74-3.12.88-.35,1.55-.12,2.17.51,1.5,1.5,3.02,3,4.59,4.56Z"/>
    </g>
  </g>
</svg>