<?xml version="1.0" encoding="UTF-8"?>
<svg id="_图层_2" data-name="图层 2" xmlns="http://www.w3.org/2000/svg" viewBox="0 0 307.61 104.46">
  <defs>
    <style>
      .cls-1 {
        fill: #00332f;
      }

      .cls-2 {
        stroke-width: 7.56px;
      }

      .cls-2, .cls-3 {
        fill: none;
        stroke: #00332f;
        stroke-miterlimit: 10;
      }

      .cls-3 {
        stroke-width: 5px;
      }
    </style>
  </defs>
  <g id="_图层_5" data-name="图层 5">
    <g>
      <g>
        <path class="cls-2" d="M113.97,100.68h-43.91L47.98,29.22c0-14.05,11.39-25.44,25.44-25.44h37.21c14.05,0,25.44,11.39,25.44,25.44l-22.09,71.46Z"/>
        <path class="cls-2" d="M172.7,100.68h-43.91l-22.09-71.46c0-14.05,11.39-25.44,25.44-25.44h37.21c14.05,0,25.44,11.39,25.44,25.44l-22.09,71.46Z"/>
        <path class="cls-2" d="M231.43,100.68h-43.91l-22.09-71.46c0-14.05,11.39-25.44,25.44-25.44h37.21c14.05,0,25.44,11.39,25.44,25.44l-22.09,71.46Z"/>
        <path class="cls-3" d="M9,36.27c93.21,27.02,190.5,37.26,287.21,30.24"/>
      </g>
      <rect class="cls-1" x="0" y="26.68" width="21" height="21" rx="6.5" ry="6.5"/>
      <rect class="cls-1" x="286.61" y="57.96" width="21" height="21" rx="6.5" ry="6.5"/>
    </g>
  </g>
</svg>