<?xml version="1.0" encoding="UTF-8"?>
<svg id="_图层_2" data-name="图层 2" xmlns="http://www.w3.org/2000/svg" viewBox="0 0 63.68 59.21">
  <defs>
    <style>
      .cls-1 {
        fill: #d1d1d1;
      }
    </style>
  </defs>
  <g id="_图层_1-2" data-name="图层 1">
    <g>
      <path class="cls-1" d="M61.45,4.58H18.11v4.55h43.34c1.24-.02,2.23-1.03,2.23-2.28s-1-2.26-2.23-2.28ZM6.83,0C3.06,0,0,3.06,0,6.83s3.06,6.83,6.83,6.83,6.83-3.06,6.83-6.83S10.6,0,6.83,0ZM6.83,9.11c-1.26,0-2.28-1.02-2.28-2.28s1.02-2.28,2.28-2.28,2.28,1.02,2.28,2.28-1.02,2.28-2.28,2.28ZM61.45,27.35H18.11v4.55h43.34c1.24-.02,2.23-1.03,2.23-2.28s-1-2.26-2.23-2.28ZM6.83,22.77c-3.77,0-6.83,3.06-6.83,6.83s3.06,6.83,6.83,6.83,6.83-3.06,6.83-6.83-3.06-6.83-6.83-6.83ZM6.83,31.88c-1.26,0-2.28-1.02-2.28-2.28s1.02-2.28,2.28-2.28,2.28,1.02,2.28,2.28-1.02,2.28-2.28,2.28Z"/>
      <path class="cls-1" d="M61.45,50.12H18.11v4.55h43.34c1.24-.02,2.23-1.03,2.23-2.28s-1-2.26-2.23-2.28ZM6.83,45.55c-3.77,0-6.83,3.06-6.83,6.83s3.06,6.83,6.83,6.83,6.83-3.06,6.83-6.83-3.06-6.83-6.83-6.83ZM6.83,54.66c-1.26,0-2.28-1.02-2.28-2.28s1.02-2.28,2.28-2.28,2.28,1.02,2.28,2.28-1.02,2.28-2.28,2.28Z"/>
    </g>
  </g>
</svg>