<?xml version="1.0" encoding="UTF-8"?>
<svg id="_图层_2" data-name="图层 2" xmlns="http://www.w3.org/2000/svg" viewBox="0 0 44.15 73.3">
  <defs>
    <style>
      .cls-1 {
        fill: #56d8d1;
      }
    </style>
  </defs>
  <g id="_图层_1-2" data-name="图层 1">
    <path class="cls-1" d="M44.15,48.83c0,7.28-5.92,13.2-13.2,13.2h-4.1v11.27h-9.55v-11.27H2.89v-9.55h28.07c2.01,0,3.65-1.64,3.65-3.65v-3.28c0-2.01-1.64-3.65-3.65-3.65H13.2c-7.28,0-13.2-5.92-13.2-13.2v-3.91c0-7.28,5.92-13.2,13.2-13.2h4.1V0h9.55v11.58h14.42v9.55H13.2c-2.02,0-3.65,1.64-3.65,3.65v3.91c0,2.01,1.64,3.65,3.65,3.65h17.75c7.28,0,13.2,5.92,13.2,13.2v3.28h0Z"/>
  </g>
</svg>