<?xml version="1.0" encoding="UTF-8"?>
<svg id="_图层_2" data-name="图层 2" xmlns="http://www.w3.org/2000/svg" viewBox="0 0 67.06 67.06">
  <defs>
    <style>
      .cls-1 {
        fill: #56d8d1;
      }
    </style>
  </defs>
  <g id="_图层_1-2" data-name="图层 1">
    <path class="cls-1" d="M22.86,0s.1,0,.15,0c.05,0,.1,0,.15.01.05,0,.1.01.15.02.05,0,.1.02.15.03.05,0,.1.02.15.03.05.01.1.03.14.04.05.01.1.03.14.05.05.02.09.03.14.05.05.02.09.04.14.06.05.02.09.04.13.07.04.02.09.05.13.07.04.03.08.05.13.08.04.03.08.06.12.09.04.03.08.06.12.09.04.03.08.06.11.1.04.03.07.07.11.1.04.04.07.07.1.11.03.04.07.07.1.11.03.04.06.08.09.12.03.04.06.08.09.12.03.04.05.08.08.13.03.04.05.09.07.13.02.04.05.09.07.13s.04.09.06.14c.02.05.04.09.05.14.02.05.03.09.05.14.01.05.03.1.04.14.01.05.02.1.03.15,0,.05.02.1.03.15,0,.05.01.1.02.15s0,.1.01.15c0,.05,0,.1,0,.15h0v3.05h15.24v-3.05h0s0-.1,0-.15c0-.05,0-.1.01-.15,0-.05.01-.1.02-.15,0-.05.02-.1.03-.15,0-.05.02-.1.03-.15.01-.05.03-.1.04-.14.01-.05.03-.1.05-.14.02-.05.03-.09.05-.14.02-.05.04-.09.06-.14.02-.05.04-.09.07-.13.02-.04.05-.09.07-.13.03-.04.05-.08.08-.13.03-.04.06-.08.09-.12.03-.04.06-.08.09-.12s.06-.08.1-.11c.03-.04.07-.07.1-.11.04-.04.07-.07.11-.1.04-.03.07-.07.11-.1.04-.03.08-.06.12-.09.04-.03.08-.06.12-.09.04-.03.08-.05.13-.08.04-.03.09-.05.13-.07.04-.02.09-.05.13-.07.05-.02.09-.04.14-.06.05-.02.09-.04.14-.05.05-.02.09-.03.14-.05.05-.01.1-.03.14-.04.05-.01.1-.02.15-.03.05,0,.1-.02.15-.03.05,0,.1-.01.15-.02.05,0,.1,0,.15-.01.05,0,.1,0,.15,0s.1,0,.15,0c.05,0,.1,0,.15.01.05,0,.1.01.15.02.05,0,.1.02.15.03.05,0,.1.02.15.03.05.01.1.03.14.04.05.01.1.03.14.05.05.02.09.03.14.05.05.02.09.04.14.06s.09.04.13.07c.04.02.09.05.13.07.04.03.08.05.13.08.04.03.08.06.12.09.04.03.08.06.12.09.04.03.08.06.11.1.04.03.07.07.11.1.04.04.07.07.1.11.03.04.07.07.1.11.03.04.06.08.09.12.03.04.06.08.09.12.03.04.05.08.08.13.03.04.05.09.07.13.02.04.05.09.07.13.02.05.04.09.06.14.02.05.04.09.05.14.02.05.03.09.05.14.01.05.03.1.04.14.01.05.02.1.03.15,0,.05.02.1.03.15,0,.05.01.1.02.15,0,.05,0,.1.01.15,0,.05,0,.1,0,.15h0v3.05h16.77s.1,0,.15,0c.05,0,.1,0,.15.01.05,0,.1.01.15.02.05,0,.1.02.15.03.05,0,.1.02.15.03.05.01.1.03.14.04.05.01.1.03.14.05s.09.03.14.05c.05.02.09.04.14.06.05.02.09.04.13.07.04.02.09.05.13.07.04.03.08.05.13.08.04.03.08.06.12.09.04.03.08.06.12.09.04.03.08.06.11.1.04.03.07.07.11.1.04.04.07.07.1.11.03.04.07.07.1.11.03.04.06.08.09.12.03.04.06.08.09.12.03.04.05.08.08.13.03.04.05.09.07.13.02.04.05.09.07.13.02.05.04.09.06.14.02.05.04.09.05.14.02.05.03.09.05.14s.03.1.04.14c.01.05.02.1.03.15,0,.05.02.1.03.15,0,.05.01.1.02.15,0,.05,0,.1.01.15,0,.05,0,.1,0,.15v54.87s0,.1,0,.15c0,.05,0,.1-.01.15,0,.05-.01.1-.02.15,0,.05-.02.1-.03.15,0,.05-.02.1-.03.15-.01.05-.03.1-.04.14-.01.05-.03.1-.05.14-.02.05-.03.09-.05.14-.02.05-.04.09-.06.14-.02.05-.04.09-.07.13-.02.04-.05.09-.07.13-.03.04-.05.08-.08.13-.03.04-.06.08-.09.12-.03.04-.06.08-.09.12-.03.04-.06.08-.1.11-.03.04-.07.07-.1.11-.04.04-.07.07-.11.1-.04.03-.07.07-.11.1-.04.03-.08.06-.12.09-.04.03-.08.06-.12.09-.04.03-.08.05-.13.08-.04.03-.09.05-.13.07-.04.02-.09.05-.13.07-.05.02-.09.04-.14.06-.05.02-.09.04-.14.05-.05.02-.09.03-.14.05-.05.01-.1.03-.14.04-.05.01-.1.02-.15.03-.05,0-.1.02-.15.03-.05,0-.1.01-.15.02-.05,0-.1,0-.15.01-.05,0-.1,0-.15,0H3.05s-.1,0-.15,0c-.05,0-.1,0-.15-.01-.05,0-.1-.01-.15-.02-.05,0-.1-.02-.15-.03-.05,0-.1-.02-.15-.03-.05-.01-.1-.03-.14-.04-.05-.01-.1-.03-.14-.05-.05-.02-.09-.03-.14-.05-.05-.02-.09-.04-.14-.06-.05-.02-.09-.04-.13-.07-.04-.02-.09-.05-.13-.07-.04-.03-.08-.05-.13-.08-.04-.03-.08-.06-.12-.09-.04-.03-.08-.06-.12-.09-.04-.03-.08-.06-.11-.1-.04-.03-.07-.07-.11-.1-.04-.04-.07-.07-.1-.11-.03-.04-.07-.07-.1-.11-.03-.04-.06-.08-.09-.12s-.06-.08-.09-.12c-.03-.04-.05-.08-.08-.13-.03-.04-.05-.09-.07-.13-.02-.04-.05-.09-.07-.13s-.04-.09-.06-.14c-.02-.05-.04-.09-.05-.14-.02-.05-.03-.09-.05-.14-.01-.05-.03-.1-.04-.14-.01-.05-.02-.1-.03-.15,0-.05-.02-.1-.03-.15,0-.05-.01-.1-.02-.15,0-.05,0-.1-.01-.15,0-.05,0-.1,0-.15V9.14s0-.1,0-.15c0-.05,0-.1.01-.15,0-.05.01-.1.02-.15,0-.05.02-.1.03-.15,0-.05.02-.1.03-.15.01-.05.03-.1.04-.14.01-.05.03-.1.05-.14.02-.05.03-.09.05-.14.02-.05.04-.09.06-.14.02-.05.04-.09.07-.13.02-.04.05-.09.07-.13.03-.04.05-.08.08-.13.03-.04.06-.08.09-.12s.06-.08.09-.12c.03-.04.06-.08.1-.11.03-.04.07-.07.1-.11s.07-.07.11-.1c.04-.03.07-.07.11-.1.04-.03.08-.06.12-.09.04-.03.08-.06.12-.09.04-.03.08-.05.13-.08.04-.03.09-.05.13-.07.04-.02.09-.05.13-.07.05-.02.09-.04.14-.06.05-.02.09-.04.14-.05.05-.02.09-.03.14-.05s.1-.03.14-.04c.05-.01.1-.02.15-.03.05,0,.1-.02.15-.03.05,0,.1-.01.15-.02.05,0,.1,0,.15-.01.05,0,.1,0,.15,0h16.77v-3.05s0-.1,0-.15c0-.05,0-.1.01-.15,0-.05.01-.1.02-.15,0-.05.02-.1.03-.15,0-.05.02-.1.03-.15.01-.05.03-.1.04-.14s.03-.1.05-.14c.02-.05.03-.09.05-.14.02-.05.04-.09.06-.14.02-.05.04-.09.07-.13.02-.04.05-.09.07-.13.03-.04.05-.08.08-.13.03-.04.06-.08.09-.12.03-.04.06-.08.09-.12.03-.04.06-.08.1-.11.03-.04.07-.07.1-.11.04-.04.07-.07.11-.1.04-.03.07-.07.11-.1.04-.03.08-.06.12-.09.04-.03.08-.06.12-.09.04-.03.08-.05.13-.08.04-.03.09-.05.13-.07.04-.02.09-.05.13-.07.05-.02.09-.04.14-.06.05-.02.09-.04.14-.05.05-.02.09-.03.14-.05.05-.01.1-.03.14-.04.05-.01.1-.02.15-.03.05,0,.1-.02.15-.03.05,0,.1-.01.15-.02.05,0,.1,0,.15-.01.05,0,.1,0,.15,0h0ZM19.82,12.19H6.1v48.77h54.87V12.19h-13.72v3.05h0s0,.1,0,.15c0,.05,0,.1-.01.15,0,.05-.01.1-.02.15,0,.05-.02.1-.03.15,0,.05-.02.1-.03.15-.01.05-.03.1-.04.14-.01.05-.03.1-.05.14-.02.05-.03.09-.05.14-.02.05-.04.09-.06.14-.02.05-.04.09-.07.13-.02.04-.05.09-.07.13-.03.04-.05.08-.08.13-.03.04-.06.08-.09.12-.03.04-.06.08-.09.12-.03.04-.06.08-.1.11-.03.04-.07.07-.1.11-.04.04-.07.07-.11.1-.04.03-.07.07-.11.1-.04.03-.08.06-.12.09-.04.03-.08.06-.12.09-.04.03-.08.05-.13.08-.04.03-.09.05-.13.07-.04.02-.09.05-.13.07-.05.02-.09.04-.14.06-.05.02-.09.04-.14.05-.05.02-.09.03-.14.05-.05.01-.1.03-.14.04-.05.01-.1.02-.15.03s-.1.02-.15.03-.1.01-.15.02c-.05,0-.1,0-.15.01-.05,0-.1,0-.15,0s-.1,0-.15,0c-.05,0-.1,0-.15-.01-.05,0-.1-.01-.15-.02-.05,0-.1-.02-.15-.03s-.1-.02-.15-.03c-.05-.01-.1-.03-.14-.04-.05-.01-.09-.03-.14-.05-.05-.02-.09-.03-.14-.05-.05-.02-.09-.04-.14-.06-.05-.02-.09-.04-.13-.07-.04-.02-.09-.05-.13-.07-.04-.03-.08-.05-.13-.08-.04-.03-.08-.06-.12-.09-.04-.03-.08-.06-.12-.09-.04-.03-.08-.06-.11-.1-.04-.03-.07-.07-.11-.1-.04-.04-.07-.07-.1-.11-.03-.04-.07-.07-.1-.11-.03-.04-.06-.08-.09-.12s-.06-.08-.09-.12-.05-.08-.08-.13c-.03-.04-.05-.09-.07-.13-.02-.04-.05-.09-.07-.13-.02-.05-.04-.09-.06-.14-.02-.05-.04-.09-.05-.14-.02-.05-.03-.09-.05-.14-.01-.05-.03-.1-.04-.14-.01-.05-.02-.1-.03-.15,0-.05-.02-.1-.03-.15,0-.05-.01-.1-.02-.15,0-.05,0-.1-.01-.15,0-.05,0-.1,0-.15h0v-3.05h-15.24v3.05h0s0,.1,0,.15,0,.1-.01.15c0,.05-.01.1-.02.15,0,.05-.02.1-.03.15,0,.05-.02.1-.03.15-.01.05-.03.1-.04.14-.01.05-.03.1-.05.14s-.03.09-.05.14c-.02.05-.04.09-.06.14-.02.05-.04.09-.07.13-.02.04-.05.09-.07.13-.03.04-.05.08-.08.13-.03.04-.06.08-.09.12-.03.04-.06.08-.09.12-.03.04-.06.08-.1.11-.03.04-.07.07-.1.11-.04.04-.07.07-.11.1-.04.03-.07.07-.11.1-.04.03-.08.06-.12.09-.04.03-.08.06-.12.09s-.08.05-.13.08c-.04.03-.09.05-.13.07-.04.02-.09.05-.13.07-.05.02-.09.04-.14.06-.05.02-.09.04-.14.05-.05.02-.09.03-.14.05-.05.01-.1.03-.14.04-.05.01-.1.02-.15.03-.05,0-.1.02-.15.03s-.1.01-.15.02c-.05,0-.1,0-.15.01-.05,0-.1,0-.15,0s-.1,0-.15,0c-.05,0-.1,0-.15-.01-.05,0-.1-.01-.15-.02-.05,0-.1-.02-.15-.03-.05,0-.1-.02-.15-.03-.05-.01-.1-.03-.14-.04-.05-.01-.1-.03-.14-.05-.05-.02-.09-.03-.14-.05-.05-.02-.09-.04-.14-.06-.05-.02-.09-.04-.13-.07-.04-.02-.09-.05-.13-.07-.04-.03-.08-.05-.13-.08-.04-.03-.08-.06-.12-.09-.04-.03-.08-.06-.12-.09-.04-.03-.08-.06-.11-.1-.04-.03-.07-.07-.11-.1-.04-.04-.07-.07-.1-.11-.03-.04-.07-.07-.1-.11-.03-.04-.06-.08-.09-.12-.03-.04-.06-.08-.09-.12s-.05-.08-.08-.13c-.03-.04-.05-.09-.07-.13-.02-.04-.05-.09-.07-.13-.02-.05-.04-.09-.06-.14-.02-.05-.04-.09-.05-.14s-.03-.09-.05-.14c-.01-.05-.03-.1-.04-.14-.01-.05-.02-.1-.03-.15,0-.05-.02-.1-.03-.15,0-.05-.01-.1-.02-.15,0-.05,0-.1-.01-.15,0-.05,0-.1,0-.15h0s0-3.05,0-3.05ZM15.24,45.72h9.15v-4.57h-6.1s-.1,0-.15,0c-.05,0-.1,0-.15-.01-.05,0-.1-.01-.15-.02-.05,0-.1-.02-.15-.03-.05,0-.1-.02-.15-.03-.05-.01-.1-.03-.14-.04-.05-.01-.1-.03-.14-.05-.05-.02-.09-.03-.14-.05-.05-.02-.09-.04-.14-.06-.05-.02-.09-.04-.13-.07-.04-.02-.09-.05-.13-.07-.04-.03-.08-.05-.13-.08-.04-.03-.08-.06-.12-.09s-.08-.06-.12-.09c-.04-.03-.08-.06-.11-.1-.04-.03-.07-.07-.11-.1-.04-.04-.07-.07-.1-.11-.03-.04-.07-.07-.1-.11-.03-.04-.06-.08-.09-.12-.03-.04-.06-.08-.09-.12-.03-.04-.05-.08-.08-.13-.03-.04-.05-.09-.07-.13-.02-.04-.05-.09-.07-.13-.02-.05-.04-.09-.06-.14-.02-.05-.04-.09-.05-.14-.02-.05-.03-.09-.05-.14-.01-.05-.03-.1-.04-.14-.01-.05-.02-.1-.03-.15,0-.05-.02-.1-.03-.15s-.01-.1-.02-.15c0-.05,0-.1-.01-.15,0-.05,0-.1,0-.15s0-.1,0-.15c0-.05,0-.1.01-.15,0-.05.01-.1.02-.15,0-.05.02-.1.03-.15,0-.05.02-.1.03-.15.01-.05.03-.1.04-.14.01-.05.03-.1.05-.14.02-.05.03-.09.05-.14.02-.05.04-.09.06-.14.02-.05.04-.09.07-.13.02-.04.05-.09.07-.13.03-.04.05-.08.08-.13.03-.04.06-.08.09-.12.03-.04.06-.08.09-.12.03-.04.06-.08.1-.11.03-.04.07-.07.1-.11.04-.04.07-.07.11-.1.04-.03.07-.07.11-.1.04-.03.08-.06.12-.09.04-.03.08-.06.12-.09.04-.03.08-.05.13-.08.04-.03.09-.05.13-.07.04-.02.09-.05.13-.07.05-.02.09-.04.14-.06.05-.02.09-.04.14-.05s.09-.03.14-.05c.05-.01.1-.03.14-.04.05-.01.1-.02.15-.03.05,0,.1-.02.15-.03.05,0,.1-.01.15-.02.05,0,.1,0,.15-.01.05,0,.1,0,.15,0h0s6.1,0,6.1,0v-4.57h-9.15s-.1,0-.15,0c-.05,0-.1,0-.15-.01s-.1-.01-.15-.02c-.05,0-.1-.02-.15-.03-.05,0-.1-.02-.15-.03-.05-.01-.1-.03-.14-.04-.05-.01-.1-.03-.14-.05-.05-.02-.09-.03-.14-.05-.05-.02-.09-.04-.14-.06-.05-.02-.09-.04-.13-.07-.04-.02-.09-.05-.13-.07-.04-.03-.09-.05-.13-.08-.04-.03-.08-.06-.12-.09-.04-.03-.08-.06-.12-.09-.04-.03-.08-.06-.11-.1s-.07-.07-.11-.1c-.04-.04-.07-.07-.1-.11-.03-.04-.07-.07-.1-.11-.03-.04-.06-.08-.09-.12s-.06-.08-.09-.12-.05-.08-.08-.13c-.03-.04-.05-.09-.07-.13-.02-.04-.05-.09-.07-.13s-.04-.09-.06-.14c-.02-.05-.04-.09-.05-.14-.02-.05-.03-.09-.05-.14-.01-.05-.03-.1-.04-.14-.01-.05-.02-.1-.03-.15,0-.05-.02-.1-.03-.15,0-.05-.01-.1-.02-.15,0-.05,0-.1-.01-.15,0-.05,0-.1,0-.15s0-.1,0-.15c0-.05,0-.1.01-.15,0-.05.01-.1.02-.15,0-.05.02-.1.03-.15,0-.05.02-.1.03-.15.01-.05.03-.1.04-.14.01-.05.03-.1.05-.14.02-.05.03-.09.05-.14.02-.05.04-.09.06-.14s.04-.09.07-.13c.02-.04.05-.09.07-.13.03-.04.05-.08.08-.13.03-.04.06-.08.09-.12s.06-.08.09-.12c.03-.04.06-.08.1-.11.03-.04.07-.07.1-.11.04-.04.07-.07.11-.1.04-.03.07-.07.11-.1.04-.03.08-.06.12-.09.04-.03.08-.06.12-.09.04-.03.08-.05.13-.08.04-.03.09-.05.13-.07.04-.02.09-.05.13-.07.05-.02.09-.04.14-.06.05-.02.09-.04.14-.05.05-.02.09-.03.14-.05s.1-.03.14-.04c.05-.01.1-.02.15-.03.05,0,.1-.02.15-.03.05,0,.1-.01.15-.02s.1,0,.15-.01c.05,0,.1,0,.15,0h0s12.19,0,12.19,0c.05,0,.1,0,.15,0,.05,0,.1,0,.15.01.05,0,.1.01.15.02.05,0,.1.02.15.03.05,0,.1.02.15.03.05.01.1.03.14.04.05.01.1.03.14.05.05.02.09.03.14.05.05.02.09.04.14.06s.09.04.13.07c.04.02.09.05.13.07.04.03.08.05.13.08.04.03.08.06.12.09.04.03.08.06.12.09.04.03.08.06.11.1.04.03.07.07.11.1.04.04.07.07.1.11.03.04.07.07.1.11.03.04.06.08.09.12.03.04.06.08.09.12.03.04.05.08.08.13.03.04.05.09.07.13.02.04.05.09.07.13.02.05.04.09.06.14.02.05.04.09.05.14.02.05.03.09.05.14.01.05.03.1.04.14.01.05.02.1.03.15,0,.05.02.1.03.15,0,.05.01.1.02.15,0,.05,0,.1.01.15,0,.05,0,.1,0,.15v10.64s0,.02,0,.03,0,.02,0,.03v10.64s0,.1,0,.15c0,.05,0,.1-.01.15,0,.05-.01.1-.02.15,0,.05-.02.1-.03.15,0,.05-.02.1-.03.15-.01.05-.03.1-.04.14-.01.05-.03.1-.05.14-.02.05-.03.09-.05.14-.02.05-.04.09-.06.14-.02.05-.04.09-.07.13-.02.04-.05.09-.07.13-.03.04-.05.08-.08.13-.03.04-.06.08-.09.12-.03.04-.06.08-.09.12-.03.04-.06.08-.1.11-.03.04-.07.07-.1.11-.04.04-.07.07-.11.1-.04.03-.07.07-.11.1-.04.03-.08.06-.12.09s-.08.06-.12.09-.08.05-.13.08c-.04.03-.09.05-.13.07-.04.02-.09.05-.13.07-.05.02-.09.04-.14.06-.05.02-.09.04-.14.05-.05.02-.09.03-.14.05-.05.01-.1.03-.14.04-.05.01-.1.02-.15.03-.05,0-.1.02-.15.03s-.1.01-.15.02c-.05,0-.1,0-.15.01-.05,0-.1,0-.15,0h-12.19s-.1,0-.15,0c-.05,0-.1,0-.15-.01-.05,0-.1-.01-.15-.02-.05,0-.1-.02-.15-.03-.05,0-.1-.02-.15-.03-.05-.01-.1-.03-.14-.04-.05-.01-.1-.03-.14-.05-.05-.02-.09-.03-.14-.05-.05-.02-.09-.04-.14-.06-.05-.02-.09-.04-.13-.07-.04-.02-.09-.05-.13-.07-.04-.03-.09-.05-.13-.08-.04-.03-.08-.06-.12-.09-.04-.03-.08-.06-.12-.09-.04-.03-.08-.06-.11-.1-.04-.03-.07-.07-.11-.1-.04-.04-.07-.07-.1-.11-.03-.04-.07-.07-.1-.11-.03-.04-.06-.08-.09-.12s-.06-.08-.09-.12c-.03-.04-.05-.08-.08-.13-.03-.04-.05-.09-.07-.13-.02-.04-.05-.09-.07-.13-.02-.05-.04-.09-.06-.14-.02-.05-.04-.09-.05-.14-.02-.05-.03-.09-.05-.14-.01-.05-.03-.1-.04-.14-.01-.05-.02-.1-.03-.15,0-.05-.02-.1-.03-.15,0-.05-.01-.1-.02-.15,0-.05,0-.1-.01-.15,0-.05,0-.1,0-.15s0-.1,0-.15c0-.05,0-.1.01-.15,0-.05.01-.1.02-.15,0-.05.02-.1.03-.15,0-.05.02-.1.03-.15.01-.05.03-.1.04-.14.01-.05.03-.1.05-.14.02-.05.03-.09.05-.14.02-.05.04-.09.06-.14.02-.05.04-.09.07-.13.02-.04.05-.09.07-.13.03-.04.05-.08.08-.13.03-.04.06-.08.09-.12.03-.04.06-.08.09-.12.03-.04.06-.08.1-.11.03-.04.07-.07.1-.11.04-.04.07-.07.11-.1.04-.03.07-.07.11-.1.04-.03.08-.06.12-.09.04-.03.08-.06.12-.09.04-.03.08-.05.13-.08.04-.03.09-.05.13-.07.04-.02.09-.05.13-.07.05-.02.09-.04.14-.06.05-.02.09-.04.14-.05.05-.02.09-.03.14-.05s.1-.03.14-.04c.05-.01.1-.02.15-.03.05,0,.1-.02.15-.03.05,0,.1-.01.15-.02.05,0,.1,0,.15-.01.05,0,.1,0,.15,0h0s0,0,0,0ZM36.58,48.77v-21.34s0-.1,0-.15c0-.05,0-.1.01-.15,0-.05.01-.1.02-.15,0-.05.02-.1.03-.15,0-.05.02-.1.03-.15.01-.05.03-.1.04-.14.01-.05.03-.1.05-.14.02-.05.03-.09.05-.14.02-.05.04-.09.06-.14.02-.05.04-.09.07-.13.02-.04.05-.09.07-.13.03-.04.05-.08.08-.13.03-.04.06-.08.09-.12s.06-.08.09-.12c.03-.04.06-.08.1-.11.03-.04.07-.07.1-.11.04-.04.07-.07.11-.1.04-.03.07-.07.11-.1.04-.03.08-.06.12-.09.04-.03.08-.06.12-.09.04-.03.08-.05.13-.08.04-.03.09-.05.13-.07.04-.02.09-.05.13-.07.05-.02.09-.04.14-.06.05-.02.09-.04.14-.05.05-.02.09-.03.14-.05.05-.01.1-.03.14-.04.05-.01.1-.02.15-.03.05,0,.1-.02.15-.03.05,0,.1-.01.15-.02.05,0,.1,0,.15-.01.05,0,.1,0,.15,0h12.19s.1,0,.15,0c.05,0,.1,0,.15.01.05,0,.1.01.15.02.05,0,.1.02.15.03.05,0,.1.02.15.03.05.01.1.03.14.04.05.01.1.03.14.05s.09.03.14.05c.05.02.09.04.14.06.05.02.09.04.13.07.04.02.09.05.13.07.04.03.08.05.13.08.04.03.08.06.12.09.04.03.08.06.12.09.04.03.08.06.11.1.04.03.07.07.11.1.04.04.07.07.1.11.03.04.07.07.1.11.03.04.06.08.09.12.03.04.06.08.09.12.03.04.05.08.08.13.03.04.05.09.07.13.02.04.05.09.07.13.02.05.04.09.06.14.02.05.04.09.05.14.02.05.03.09.05.14.01.05.03.1.04.14.01.05.02.1.03.15,0,.05.02.1.03.15,0,.05.01.1.02.15,0,.05,0,.1.01.15,0,.05,0,.1,0,.15v21.34s0,.1,0,.15c0,.05,0,.1-.01.15,0,.05-.01.1-.02.15,0,.05-.02.1-.03.15,0,.05-.02.1-.03.15-.01.05-.03.1-.04.14-.01.05-.03.1-.05.14-.02.05-.03.09-.05.14-.02.05-.04.09-.06.14-.02.05-.04.09-.07.13-.02.04-.05.09-.07.13-.03.04-.05.08-.08.13-.03.04-.06.08-.09.12-.03.04-.06.08-.09.12-.03.04-.06.08-.1.11-.03.04-.07.07-.1.11-.04.04-.07.07-.11.1-.04.03-.07.07-.11.1-.04.03-.08.06-.12.09-.04.03-.08.06-.12.09-.04.03-.08.05-.13.08-.04.03-.09.05-.13.07-.04.02-.09.05-.13.07-.05.02-.09.04-.14.06-.05.02-.09.04-.14.05-.05.02-.09.03-.14.05-.05.01-.1.03-.14.04-.05.01-.1.02-.15.03-.05,0-.1.02-.15.03s-.1.01-.15.02c-.05,0-.1,0-.15.01-.05,0-.1,0-.15,0h-12.19s-.1,0-.15,0c-.05,0-.1,0-.15-.01-.05,0-.1-.01-.15-.02s-.1-.02-.15-.03c-.05,0-.1-.02-.15-.03-.05-.01-.1-.03-.14-.04-.05-.01-.1-.03-.14-.05-.05-.02-.09-.03-.14-.05-.05-.02-.09-.04-.14-.06-.05-.02-.09-.04-.13-.07-.04-.02-.09-.05-.13-.07-.04-.03-.08-.05-.13-.08-.04-.03-.08-.06-.12-.09s-.08-.06-.12-.09c-.04-.03-.08-.06-.11-.1s-.07-.07-.11-.1c-.04-.04-.07-.07-.1-.11-.03-.04-.07-.07-.1-.11-.03-.04-.06-.08-.09-.12-.03-.04-.06-.08-.09-.12s-.05-.08-.08-.13c-.03-.04-.05-.09-.07-.13-.02-.04-.05-.09-.07-.13-.02-.05-.04-.09-.06-.14-.02-.05-.04-.09-.05-.14s-.03-.09-.05-.14c-.01-.05-.03-.1-.04-.14-.01-.05-.02-.1-.03-.15,0-.05-.02-.1-.03-.15,0-.05-.01-.1-.02-.15,0-.05,0-.1-.01-.15,0-.05,0-.1,0-.15ZM48.77,30.48h-6.1v15.24h6.1v-15.24Z"/>
  </g>
</svg>