<?xml version="1.0" encoding="UTF-8"?>
<svg id="_图层_2" data-name="图层 2" xmlns="http://www.w3.org/2000/svg" viewBox="0 0 503.82 431.74">
  <defs>
    <style>
      .cls-1 {
        fill: #00ffec;
      }
    </style>
  </defs>
  <g id="_图层_1-2" data-name="图层 1">
    <g>
      <path class="cls-1" d="M10.71,137.13c10.51-33.41,38.81-57.3,70.08-71.34,38.63-17.34,81.92-18.32,123.53-16.97,43.39,1.41,86.87,5.23,130.01-1.74,19.41-3.14,38.47-8.54,56.21-17.11,8.98-4.34,17.41-9.57,25.39-15.54,1.64-1.22,3.37-2.64,5.3-3.36s3.48.19,5.24,1.21c3.97,2.29,7.88,4.7,11.74,7.17,14.29,9.13,29.43,20.59,35.03,37.3,6.75,20.15-1.85,41.08-11.44,58.75-2.57,4.74-5.31,9.39-8.09,14.01-3.6,5.98,5.76,11.43,9.35,5.46,11.45-19.02,23.38-40.13,23.45-62.98.03-10.48-2.79-20.86-8.22-29.82-4.92-8.13-11.64-15.05-19.02-20.97-7.62-6.12-15.84-11.39-24.21-16.41-4.98-2.99-9.96-5.91-15.99-4.37-5.2,1.33-9.28,5.3-13.56,8.29-16.4,11.45-34.99,19.07-54.34,23.91-42.16,10.54-85.9,7.95-128.88,6.08-44.81-1.95-91.54-3.26-134.27,12.55C53.7,63.94,20.91,87.06,5.34,121.15c-1.95,4.26-3.65,8.63-5.06,13.11-2.1,6.66,8.35,9.51,10.44,2.88h0Z"/>
      <path class="cls-1" d="M12.93,256.44c12.75,13.17,29.96,20.52,47.51,24.81,19.71,4.82,40.22,6.81,60.36,8.93,44.83,4.71,89.96,6.5,135.01,5.37,22.37-.56,44.72-1.84,67.01-3.84,20.38-1.83,40.6-4.79,60.95-6.89,30.44-3.16,67.37-4.83,90.56,18.19,12.51,12.42,18.01,29.99,18.6,47.29.71,20.61-5.35,40.65-12.32,59.82-1.8,4.94-3.67,9.85-5.54,14.76-1.04,2.73,1.15,5.94,3.78,6.66,3.05.84,5.61-1.04,6.66-3.78,7.82-20.47,15.49-41.14,17.74-63.09,1.91-18.6-.82-38.33-10.13-54.75-8.68-15.29-22.96-26.07-39.44-31.76-15.88-5.49-33.2-6.36-49.86-5.68-18.33.75-36.45,3.61-54.65,5.71-22.7,2.62-45.49,4.49-68.31,5.61-45.49,2.23-91.13,1.48-136.52-2.24-21.46-1.76-43-3.91-64.26-7.39-17.38-2.85-35.18-7.08-49.91-17.19-3.48-2.39-6.65-5.15-9.58-8.18-4.85-5.01-12.5,2.65-7.65,7.65h0Z"/>
    </g>
  </g>
</svg>