<?xml version="1.0" encoding="UTF-8"?>
<svg id="_图层_2" data-name="图层 2" xmlns="http://www.w3.org/2000/svg" viewBox="0 0 699.24 356.11">
  <defs>
    <style>
      .cls-1 {
        fill: #00ffec;
      }
    </style>
  </defs>
  <g id="_图层_1-2" data-name="图层 1">
    <g>
      <path class="cls-1" d="M117.83,349.9c17.26-51.6,34.54-103.4,57.88-152.65,10.54-22.23,22.13-44.54,38.5-63.1,14.55-16.49,32.77-29.1,53.44-36.67,40.97-15.01,87.2-11.68,126.83,5.96,41.69,18.56,76.37,50.44,103.35,86.82,31.11,41.95,52.95,89.82,73.5,137.57,2.56,5.94,5.09,11.88,7.63,17.83,1.15,2.69,5.11,3.29,7.41,1.94,2.78-1.63,3.09-4.71,1.94-7.41-21.03-49.28-42.27-99-72.62-143.42-26.67-39.04-60.84-74.22-102.97-96.47s-88.36-29.34-133.34-17.8c-21.79,5.59-42.33,15.87-59.37,30.61-19.17,16.59-33.14,38.38-44.74,60.69-25.47,48.98-43.74,101.47-61.31,153.68-2.19,6.51-4.37,13.02-6.55,19.53-.93,2.77,1.07,5.91,3.78,6.66,2.95.81,5.73-1,6.66-3.78h0Z"/>
      <path class="cls-1" d="M10.86,350.7c8.21-64.29,29.19-126.93,60.9-183.42,15.83-28.21,34.3-54.97,55.32-79.58,21.41-25.07,46.18-47.95,77.12-60.5,30.79-12.49,64.28-15.85,97.23-16.31,33.79-.47,68.04.93,101.3,7.22,32.64,6.18,63.94,17.55,91.45,36.39,25.48,17.44,47.03,40.1,66.17,64.18,20.51,25.8,38.45,53.6,56.28,81.29,20.17,31.33,39.73,63.05,58.66,95.14,4.65,7.88,9.26,15.78,13.83,23.7,3.48,6.03,12.84.59,9.35-5.46-19.19-33.23-39.03-66.09-59.53-98.53-18.6-29.43-37.35-58.94-58.05-86.96-19.02-25.76-39.99-50.41-65-70.58-26.32-21.22-56.39-36.19-89.08-44.83C393.44,3.64,358.71.82,324.31.16s-69.47.47-102.78,9.76c-16.25,4.53-32.03,11.09-46.37,20.01s-27.17,19.83-38.95,31.76c-23.55,23.83-43.94,51.23-61.65,79.61C39.42,197.6,15.07,260.83,3.68,326.24c-1.41,8.12-2.61,16.28-3.65,24.46-.37,2.9,2.75,5.41,5.41,5.41,3.23,0,5.04-2.5,5.41-5.41h0Z"/>
    </g>
  </g>
</svg>