<?xml version="1.0" encoding="UTF-8"?>
<svg id="_图层_2" data-name="图层 2" xmlns="http://www.w3.org/2000/svg" viewBox="0 0 662.6 373.11">
  <defs>
    <style>
      .cls-1 {
        fill: #00ffec;
      }
    </style>
  </defs>
  <g id="_图层_1-2" data-name="图层 1">
    <g>
      <path class="cls-1" d="M.66,119.62c16.91,32.76,31.72,66.7,51.37,97.97,15.9,25.31,35.3,48.32,57.61,68.21,43.63,38.88,97.43,66.22,154.43,79.04,56.91,12.8,117.05,11.07,172.51-7.5,54.65-18.3,103.94-51.54,142.54-94.22,38.57-42.65,66.96-94.93,79.48-151.2,1.56-7,2.86-14.05,3.92-21.14.43-2.89-.72-5.82-3.78-6.66-2.55-.7-6.22.87-6.66,3.78-8.32,55.51-32.22,108.17-67.28,151.9-34.8,43.4-80.29,78.78-131.88,99.94-52.57,21.57-110.42,27.63-166.45,18.45-55.77-9.14-109.51-32.28-153.95-67.29-22.41-17.65-42.67-38.24-59.42-61.36-20.61-28.45-35.74-60.33-51.21-91.73-3.9-7.92-7.84-15.82-11.89-23.66-3.2-6.19-12.54-.72-9.35,5.46h0Z"/>
      <path class="cls-1" d="M101.13,29.7c7.44,25.19,14.9,50.4,23.82,75.12s19.25,49,32.33,71.8c11.31,19.71,24.76,38.32,40.45,54.78,15.59,16.36,33.62,30.68,53.66,41.22,19.99,10.51,41.73,16.96,64.26,18.75,21.83,1.73,44.4-1.08,64.79-9.24,20.91-8.37,38.88-22,52.68-39.81,14.15-18.25,23.84-39.35,31.38-61.07,8.21-23.64,14.27-48.09,19.97-72.44,6.35-27.13,11.75-54.48,16.18-81.99,1.07-6.66,2.09-13.32,3.05-20,.42-2.89-.71-5.82-3.78-6.66-2.54-.7-6.24.87-6.66,3.78-3.9,27.08-8.72,54.02-14.46,80.76-5.45,25.36-11.53,50.67-18.92,75.54-6.34,21.35-13.7,41.65-25.17,60.7-10.93,18.16-25.38,33.82-43.85,44.29-9.3,5.28-18.23,8.78-28.71,11.51-5.07,1.32-10.22,2.33-15.41,3.06-.64.09-.17.02-.04,0-.39.05-.79.1-1.18.15-.59.07-1.18.14-1.78.2-1.38.15-2.77.28-4.16.39-2.68.21-5.37.35-8.06.42-5.3.13-10.6-.01-15.88-.43-5.62-.44-9.72-.99-15.24-2.04-10.52-1.98-20.83-5.04-30.72-9.14-19.27-7.99-37.96-20.7-53.54-35.04-16.28-14.99-29.83-31.75-41.66-50.22-13.23-20.64-23.88-42.86-32.87-65.63-9.51-24.1-17.29-48.84-24.71-73.65-1.8-6-3.57-12.01-5.34-18.02-.83-2.8-3.8-4.57-6.66-3.78s-4.61,3.84-3.78,6.66h0Z"/>
    </g>
  </g>
</svg>