<?xml version="1.0" encoding="UTF-8"?>
<svg id="_图层_2" data-name="图层 2" xmlns="http://www.w3.org/2000/svg" viewBox="0 0 27.67 35.51">
  <defs>
    <style>
      .cls-1 {
        fill-rule: evenodd;
      }

      .cls-1, .cls-2 {
        fill: #56d8d1;
      }
    </style>
  </defs>
  <g id="_图层_1-2" data-name="图层 1">
    <g>
      <path class="cls-1" d="M2.25,15.78c.89.1,1.63.82,1.74,1.71.07.55-.08,1.07-.39,1.47-.57.75-.84,1.69-.84,2.63v.22c0,.97.34,1.9.89,2.71.22.32.35.71.35,1.12s-.13.8-.35,1.12c-.55.8-.89,1.73-.89,2.71v.22c0,.94.27,1.88.84,2.63.3.4.46.92.39,1.47-.12.89-.85,1.61-1.74,1.71-1.2.13-2.21-.8-2.21-1.98,0-.42.13-.8.35-1.12.55-.8.89-1.73.89-2.71v-.22c0-.97-.34-1.9-.89-2.71-.22-.32-.35-.71-.35-1.12s.13-.8.35-1.12c.55-.8.89-1.73.89-2.71v-.22c0-.97-.34-1.9-.89-2.71-.22-.32-.35-.71-.35-1.12,0-1.17,1.02-2.11,2.21-1.98Z"/>
      <circle class="cls-2" cx="2.03" cy="1.99" r="1.99"/>
      <path class="cls-1" d="M7.94,3.98c-1.1,0-1.99-.89-1.99-1.99s.89-1.99,1.99-1.99h1.97c9.81,0,17.76,7.95,17.76,17.76,0,9.81-7.95,17.76-17.76,17.76h-1.97c-1.1,0-1.99-.89-1.99-1.99s.89-1.99,1.99-1.99h1.97c7.61,0,13.78-6.17,13.78-13.78S17.52,3.98,9.91,3.98h-1.97ZM8.07,27.63h1.84c5.45,0,9.87-4.42,9.87-9.87S15.36,7.88,9.91,7.88H1.99c-1.1,0-1.99.89-1.99,1.99s.89,1.99,1.99,1.99h7.92c3.26,0,5.9,2.64,5.9,5.9s-2.64,5.9-5.9,5.9h-1.84c-1.1,0-1.99.89-1.99,1.99s.89,1.99,1.99,1.99Z"/>
    </g>
  </g>
</svg>