<?xml version="1.0" encoding="UTF-8"?>
<svg id="_图层_2" data-name="图层 2" xmlns="http://www.w3.org/2000/svg" viewBox="0 0 95.54 48.7">
  <defs>
    <style>
      .cls-1 {
        fill: none;
        stroke: #6e6f6c;
        stroke-miterlimit: 10;
        stroke-width: 2.04px;
      }

      .cls-2 {
        font-family: HYQiHei-HES-GBpc-EUC-H, HYQiHei;
        font-size: 17.43px;
      }

      .cls-2, .cls-3 {
        fill: #6e6f6c;
      }
    </style>
  </defs>
  <g id="_图层_1-2" data-name="图层 1">
    <g>
      <g>
        <path class="cls-3" d="M40.6,27.85c1.83-1.96,2.95-4.59,2.95-7.47,0-6.04-4.91-10.95-10.95-10.95s-10.95,4.91-10.95,10.95c0,2.9,1.13,5.53,2.98,7.5-1.17.68-2.26,1.52-3.25,2.51-3,3-4.66,7-4.66,11.25,0,2.58.64,4.41,1.94,5.59,2.09,1.89,5.21,1.57,8.81,1.2,1.65-.17,3.36-.35,5.16-.35s3.51.17,5.16.35c1.41.15,2.74.28,3.97.28,1.91,0,3.57-.33,4.84-1.48,1.31-1.18,1.94-3,1.94-5.59,0-4.25-1.66-8.25-4.66-11.25-.98-.99-2.09-1.84-3.27-2.52h0ZM32.6,12.99c4.07,0,7.38,3.31,7.38,7.38s-3.31,7.38-7.38,7.38-7.38-3.31-7.38-7.38c0-4.07,3.32-7.38,7.38-7.38ZM44.21,44.56c-.92.83-3.41.57-6.05.3-1.66-.17-3.54-.36-5.53-.36s-3.86.2-5.53.36c-2.64.27-5.14.52-6.05-.3-.5-.46-.76-1.44-.76-2.94,0-5.11,3.13-9.51,7.58-11.38,1.43.69,3.04,1.08,4.74,1.08,1.85,0,3.59-.46,5.12-1.27-.06.08-.13.17-.2.25,4.38,1.9,7.45,6.26,7.45,11.33,0,1.5-.26,2.48-.76,2.94h0Z"/>
        <path class="cls-3" d="M60.18,22.76c-.99-.99-2.1-1.84-3.28-2.53,1.86-1.99,2.99-4.67,2.95-7.6-.02-1.28-.25-2.51-.68-3.66,0,0,0-.01,0-.02-.02-.04-.03-.08-.04-.12-1.56-4.09-5.52-7.03-10.14-7.07-3.84-.03-7.22,1.91-9.21,4.88-.79,1.19.06,2.78,1.48,2.78.6,0,1.15-.3,1.48-.79.28-.42.61-.82.98-1.18.09-.06.19-.12.28-.2,1.34-1.19,3.11-1.9,5.05-1.86,3.17.06,5.86,2.14,6.84,5,.27.79.4,1.65.38,2.53-.09,3.77-3.06,6.9-6.83,7.17-.18.01-.36.02-.53.02-.12,0-.23.01-.35.03-.83,0-1.56.59-1.72,1.41,0,.01,0,.02,0,.03-.22,1.07.56,2.08,1.65,2.13.14,0,.28,0,.42,0,1.71,0,3.33-.4,4.78-1.1,4.38,1.9,7.59,6.34,7.59,11.4,0,1.49-.26,2.48-.76,2.94-.92.83-3.41.57-6.05.3-.5-.05-1.6-.15-1.62-.14-.97.02-1.75.81-1.75,1.78s.78,1.76,1.74,1.78c0,0,.86.09,1.27.13,1.41.15,2.74.28,3.97.28,1.91,0,3.57-.33,4.84-1.48,1.31-1.18,1.94-3,1.94-5.59,0-4.25-1.66-8.25-4.66-11.25h0Z"/>
        <path class="cls-3" d="M4.66,22.76C1.66,25.77,0,29.76,0,34.01c0,2.58.63,4.41,1.94,5.59,1.27,1.16,2.93,1.48,4.84,1.48,1.23,0,2.56-.13,3.97-.28.41-.04,1.26-.13,1.27-.13.96-.02,1.74-.81,1.74-1.78s-.78-1.76-1.75-1.78c-.02-.01-1.12.09-1.62.14-2.64.27-5.14.52-6.05-.3-.5-.46-.76-1.45-.76-2.94,0-5.06,3.22-9.5,7.59-11.4,1.45.7,3.06,1.1,4.78,1.1.15,0,.28,0,.42,0,1.09-.04,1.88-1.06,1.65-2.13,0-.01,0-.02,0-.03-.17-.82-.89-1.41-1.72-1.41-.11-.02-.23-.03-.35-.03-.17,0-.35-.01-.53-.02-3.77-.27-6.74-3.39-6.83-7.17-.02-.88.11-1.74.38-2.53.98-2.86,3.67-4.93,6.84-5,1.94-.04,3.71.68,5.05,1.86.09.08.18.15.28.2.36.36.69.75.98,1.18.33.5.89.79,1.48.79,1.43,0,2.28-1.59,1.48-2.78-1.99-2.97-5.38-4.91-9.21-4.88-4.62.04-8.57,2.98-10.14,7.07-.02.04-.03.08-.04.12,0,.01,0,.02,0,.02-.42,1.14-.66,2.37-.68,3.66-.03,2.94,1.09,5.62,2.95,7.6-1.18.69-2.29,1.54-3.28,2.53h0Z"/>
      </g>
      <g>
        <text class="cls-2" transform="translate(71.51 16.78)"><tspan x="0" y="0">AI</tspan></text>
        <rect class="cls-1" x="68.28" y="1.02" width="26.24" height="19.57" rx="4.46" ry="4.46"/>
      </g>
    </g>
  </g>
</svg>