<?xml version="1.0" encoding="UTF-8"?>
<svg id="_图层_2" data-name="图层 2" xmlns="http://www.w3.org/2000/svg" viewBox="0 0 57.37 57.37">
  <defs>
    <style>
      .cls-1 {
        fill: #d1d1d1;
      }
    </style>
  </defs>
  <g id="_图层_1-2" data-name="图层 1">
    <path class="cls-1" d="M0,28.69C0,12.84,12.84,0,28.69,0s28.69,12.84,28.69,28.69-12.84,28.69-28.69,28.69S0,44.53,0,28.69ZM4.59,28.69c0,13.31,10.79,24.1,24.1,24.1h0c13.31,0,24.1-10.79,24.1-24.1h0c0-13.31-10.79-24.1-24.1-24.1h0C15.38,4.59,4.59,15.38,4.59,28.69h0ZM37.49,36.45l-9.94-5.74c-.49-.28-.87-.74-1.04-1.29-.08-.24-.12-.49-.12-.74V12.62c0-1.27,1.03-2.29,2.29-2.29,1.27,0,2.29,1.03,2.29,2.29h0v14.77l8.8,5.08c1.1.63,1.47,2.04.84,3.13-.41.71-1.17,1.15-1.99,1.15-.4,0-.8-.11-1.15-.31h0Z"/>
  </g>
</svg>