<?xml version="1.0" encoding="UTF-8"?>
<svg id="_图层_2" data-name="图层 2" xmlns="http://www.w3.org/2000/svg" viewBox="0 0 85.85 85.85">
  <defs>
    <style>
      .cls-1 {
        fill: #56d8d1;
      }
    </style>
  </defs>
  <g id="_图层_1-2" data-name="图层 1">
    <g>
      <path class="cls-1" d="M42.92,85.85C19.26,85.85,0,66.59,0,42.92S19.26,0,42.92,0s42.92,19.26,42.92,42.92-19.26,42.93-42.92,42.93ZM42.92,3.1C20.96,3.1,3.1,20.96,3.1,42.92s17.87,39.83,39.83,39.83,39.83-17.87,39.83-39.83S64.89,3.1,42.92,3.1Z"/>
      <path class="cls-1" d="M19.16,27.81v-.2s3.98.28,3.98.28v.04c-.34,4.67-.93,12.96,3.7,20.67,2.64,4.4,3.82,9.48,4.16,12.96h6.05c-.1-3.96-.52-7.18-1.46-9.95-1.07-3.18-2.85-5.87-5.79-8.44l2.62-3c3.43,3,5.63,6.27,6.94,10.16,1.29,3.83,1.69,8.16,1.69,13.22v1.99h-13.92v-1.99c0-2.69-.93-8.29-3.7-12.9-5.28-8.79-4.61-18.15-4.27-22.85h0ZM66.9,27.61l.02.2c.34,4.69,1.01,14.05-4.27,22.84-2.76,4.6-3.7,10.2-3.7,12.9v1.99h-13.92v-1.99c0-5.05.4-9.38,1.7-13.22,1.31-3.88,3.51-7.16,6.94-10.16l2.62,3c-2.94,2.57-4.72,5.26-5.79,8.44-.94,2.78-1.36,6-1.46,9.95h6.05c.34-3.48,1.52-8.56,4.16-12.96,4.63-7.71,4.04-16.01,3.7-20.67v-.04s3.96-.28,3.96-.28h0ZM27.13,17.81v2.23c.04.85.12,1.7.24,2.54.23,1.61.71,3.78,1.67,5.98s2.45,4.5,4.75,6.25c1.91,1.46,4.31,2.48,7.27,2.79v4.08h3.98v-4.1c5.72-.7,9.19-4.37,11.17-7.84,1.1-1.92,1.77-3.82,2.18-5.23.21-.73.38-1.48.52-2.23l.04-.21.32-2.27h-2.36c-.22,0-.44.01-.66.03-.43.03-1.03.08-1.75.19-1.42.22-3.36.67-5.32,1.58-1.97.91-4.01,2.32-5.56,4.48-.09.13-.18.26-.26.39-1.35-2.81-3.56-5.11-6.32-6.56-1.68-.89-3.5-1.51-5.37-1.84-.76-.14-1.53-.22-2.3-.26-.05,0-.1,0-.15,0h-2.06ZM39.17,27.14c.96,1.54,1.69,3.62,1.85,6.44-2.04-.29-3.61-1.02-4.83-1.94-1.61-1.23-2.74-2.91-3.52-4.69-.67-1.57-1.13-3.21-1.37-4.9,1.33.27,2.62.72,3.83,1.36,1.65.86,3.05,2.15,4.04,3.73h0ZM45.07,33.55c.18-2.25.86-3.9,1.76-5.15,1.06-1.47,2.49-2.49,4.01-3.19,1.12-.51,2.3-.89,3.51-1.12-.41,1.28-.94,2.51-1.6,3.68-1.52,2.66-3.88,5.13-7.68,5.79h0Z"/>
    </g>
  </g>
</svg>