<?xml version="1.0" encoding="UTF-8"?>
<svg id="_图层_2" data-name="图层 2" xmlns="http://www.w3.org/2000/svg" viewBox="0 0 233.39 48.69">
  <defs>
    <style>
      .cls-1 {
        fill-rule: evenodd;
      }

      .cls-1, .cls-2 {
        fill: #fff;
      }
    </style>
  </defs>
  <g id="_图层_1-2" data-name="图层 1">
    <g>
      <g>
        <path class="cls-1" d="M55.54,16.38c0-.87.7-1.57,1.57-1.57s1.57.7,1.57,1.57v15.88c0,.87-.7,1.57-1.57,1.57s-1.57-.7-1.57-1.57v-15.88Z"/>
        <path class="cls-1" d="M61.08,27.48c-.87,0-1.57-.7-1.57-1.57s.7-1.57,1.57-1.57h.79c.88,0,1.68-.36,2.26-.94.58-.58.94-1.38.94-2.26s-.36-1.68-.94-2.26c-.58-.58-1.38-.94-2.26-.94h-4.76c-.87,0-1.57-.7-1.57-1.57s.7-1.57,1.57-1.57h4.76c1.75,0,3.33.71,4.48,1.86,1.15,1.15,1.86,2.73,1.86,4.48s-.71,3.33-1.86,4.48c-1.15,1.15-2.73,1.86-4.48,1.86h-.79Z"/>
        <path class="cls-1" d="M81.33,14.81c.87,0,1.57.7,1.57,1.57s-.7,1.57-1.57,1.57h-6.75c-.45,0-.85.18-1.14.46-.29.29-.47.69-.47,1.14v9.53c0,.44.18.85.47,1.14s.69.47,1.14.47h6.75c.87,0,1.57.7,1.57,1.57s-.7,1.57-1.57,1.57h-6.75c-1.31,0-2.5-.53-3.36-1.39-.86-.86-1.39-2.05-1.39-3.36v-9.53c0-1.31.53-2.49,1.39-3.35.86-.86,2.05-1.4,3.36-1.4h6.75Z"/>
        <path class="cls-1" d="M81.33,22.75c.87,0,1.57.7,1.57,1.57s-.7,1.57-1.57,1.57h-5.97c-.87,0-1.57-.7-1.57-1.57s.7-1.57,1.57-1.57h5.97Z"/>
        <path class="cls-1" d="M103.18,16.38c0-.87.7-1.57,1.57-1.57s1.57.7,1.57,1.57v15.88c0,.87-.7,1.57-1.57,1.57s-1.57-.7-1.57-1.57v-15.88Z"/>
        <path class="cls-1" d="M108.73,27.48c-.87,0-1.57-.7-1.57-1.57s.7-1.57,1.57-1.57h2.38c.88,0,1.68-.36,2.26-.94.58-.58.94-1.38.94-2.26s-.36-1.68-.94-2.26c-.58-.58-1.38-.94-2.26-.94h-6.35c-.87,0-1.57-.7-1.57-1.57s.7-1.57,1.57-1.57h6.35c1.75,0,3.33.71,4.48,1.86,1.15,1.15,1.86,2.73,1.86,4.48s-.71,3.33-1.86,4.48c-1.15,1.15-2.73,1.86-4.48,1.86h-2.38Z"/>
        <path class="cls-1" d="M111.56,26.7c-.43-.75-.18-1.71.57-2.14.75-.43,1.71-.18,2.14.57l3.75,6.49c.43.75.18,1.71-.57,2.14-.75.43-1.71.18-2.14-.57l-3.75-6.49Z"/>
        <path class="cls-1" d="M120.65,16.38c0-.87.7-1.57,1.57-1.57s1.57.7,1.57,1.57v12.71c0,.44.18.85.47,1.14.29.29.69.47,1.14.47h6.35c.87,0,1.57.7,1.57,1.57s-.7,1.57-1.57,1.57h-6.35c-1.31,0-2.5-.53-3.36-1.39-.86-.86-1.39-2.05-1.39-3.36v-12.71Z"/>
        <path class="cls-1" d="M139.71,16.38c0-.87.7-1.57,1.57-1.57s1.57.7,1.57,1.57v15.88c0,.87-.7,1.57-1.57,1.57s-1.57-.7-1.57-1.57v-15.88Z"/>
        <path class="cls-1" d="M145.26,33.84c-.87,0-1.57-.7-1.57-1.57s.7-1.57,1.57-1.57h.79c1.76,0,3.35-.71,4.5-1.87,1.15-1.15,1.87-2.75,1.87-4.5s-.71-3.35-1.87-4.5c-1.15-1.15-2.75-1.87-4.5-1.87h-4.77c-.87,0-1.57-.7-1.57-1.57s.7-1.57,1.57-1.57h4.77c2.63,0,5,1.06,6.73,2.79,1.72,1.72,2.79,4.1,2.79,6.73s-1.07,5-2.79,6.73c-1.72,1.72-4.1,2.79-6.73,2.79h-.79Z"/>
        <path class="cls-1" d="M158.77,16.38c0-.87.7-1.57,1.57-1.57s1.57.7,1.57,1.57v15.88c0,.87-.7,1.57-1.57,1.57s-1.57-.7-1.57-1.57v-15.88Z"/>
        <path class="cls-1" d="M173.05,14.81c.87,0,1.57.7,1.57,1.57s-.7,1.57-1.57,1.57h-3.18c-.45,0-.85.18-1.14.47-.29.29-.47.69-.47,1.14v9.53c0,.44.18.85.47,1.14.29.29.69.47,1.14.47h3.18c.87,0,1.57.7,1.57,1.57s-.7,1.57-1.57,1.57h-3.18c-1.31,0-2.5-.53-3.36-1.39s-1.39-2.05-1.39-3.36v-9.53c0-1.31.53-2.49,1.39-3.35h0c.86-.87,2.04-1.4,3.35-1.4h3.18Z"/>
        <path class="cls-1" d="M173.05,17.95c-.87,0-1.57-.7-1.57-1.57s.7-1.57,1.57-1.57h3.18c1.31,0,2.49.53,3.35,1.39h0c.86.87,1.39,2.05,1.39,3.36v.79c0,.87-.7,1.57-1.57,1.57s-1.57-.7-1.57-1.57v-.79c0-.45-.18-.85-.47-1.14-.29-.29-.69-.47-1.14-.47h-3.18ZM177.83,24.33c0-.87.7-1.57,1.57-1.57s1.57.7,1.57,1.57v4.76c0,1.31-.53,2.5-1.39,3.36-.86.86-2.05,1.39-3.36,1.39h-3.18c-.87,0-1.57-.7-1.57-1.57s.7-1.57,1.57-1.57h3.18c.44,0,.84-.18,1.14-.47.29-.29.47-.69.47-1.14v-4.76Z"/>
        <path class="cls-1" d="M179.4,22.75c.87,0,1.57.7,1.57,1.57s-.7,1.57-1.57,1.57h-4.76c-.87,0-1.57-.7-1.57-1.57s.7-1.57,1.57-1.57h4.76Z"/>
        <path class="cls-1" d="M185.77,16.38c0-.87.7-1.57,1.57-1.57s1.57.7,1.57,1.57v15.88c0,.87-.7,1.57-1.57,1.57s-1.57-.7-1.57-1.57v-15.88Z"/>
        <path class="cls-1" d="M195.3,20.35c0-.87.7-1.57,1.57-1.57s1.57.7,1.57,1.57v11.91c0,.87-.7,1.57-1.57,1.57s-1.57-.7-1.57-1.57v-11.91Z"/>
        <path class="cls-1" d="M201.64,14.81c.87,0,1.57.7,1.57,1.57s-.7,1.57-1.57,1.57h-9.53c-.87,0-1.57-.7-1.57-1.57s.7-1.57,1.57-1.57h9.53Z"/>
        <path class="cls-1" d="M220.71,16.38c0-.87.7-1.57,1.57-1.57s1.57.7,1.57,1.57v12.71c0,.44.18.85.47,1.14.29.29.69.47,1.14.47h6.35c.87,0,1.57.7,1.57,1.57s-.7,1.57-1.57,1.57h-6.35c-1.31,0-2.5-.53-3.36-1.39-.86-.86-1.39-2.05-1.39-3.36v-12.71Z"/>
        <path class="cls-1" d="M87.17,32.8c-.29.81-1.19,1.23-2.01.94-.81-.29-1.23-1.19-.94-2.01l5.38-14.77c.38-1.05,1.16-1.74,2.05-2.06.39-.14.8-.21,1.2-.21s.8.07,1.2.21c.89.33,1.67,1.01,2.05,2.06l5.38,14.77c.29.81-.13,1.71-.94,2.01-.81.29-1.71-.13-2.01-.94l-5.38-14.77c-.04-.1-.1-.16-.17-.19-.03-.01-.08-.02-.13-.02s-.1,0-.13.02c-.07.03-.13.09-.17.19l-5.38,14.77Z"/>
        <path class="cls-1" d="M97.65,24.34c.87,0,1.57.7,1.57,1.57s-.7,1.57-1.57,1.57h-5.6c-.87,0-1.57-.7-1.57-1.57s.7-1.57,1.57-1.57h5.6Z"/>
        <path class="cls-1" d="M204.7,32.8c-.29.81-1.19,1.23-2.01.94-.81-.29-1.23-1.19-.94-2.01l5.38-14.77c.38-1.05,1.16-1.74,2.05-2.06.39-.14.8-.21,1.2-.21s.8.07,1.2.21c.89.33,1.67,1.01,2.05,2.06l5.38,14.77c.29.81-.13,1.71-.94,2.01-.81.29-1.71-.13-2.01-.94l-5.38-14.77c-.04-.1-.1-.16-.17-.19-.03-.01-.08-.02-.13-.02s-.1,0-.13.02c-.07.03-.13.09-.17.19l-5.38,14.77Z"/>
        <path class="cls-1" d="M215.18,24.34c.87,0,1.57.7,1.57,1.57s-.7,1.57-1.57,1.57h-5.6c-.87,0-1.57-.7-1.57-1.57s.7-1.57,1.57-1.57h5.6Z"/>
      </g>
      <g>
        <path class="cls-1" d="M3.09,21.64c1.23.14,2.23,1.12,2.39,2.34.1.76-.11,1.47-.53,2.01-.78,1.03-1.15,2.31-1.15,3.61v.3c0,1.34.47,2.61,1.23,3.71.3.44.48.97.48,1.54s-.18,1.1-.48,1.54c-.76,1.1-1.23,2.38-1.23,3.71v.3c0,1.29.37,2.58,1.15,3.61.42.55.63,1.25.53,2.01-.16,1.22-1.17,2.21-2.39,2.34-1.64.18-3.04-1.1-3.04-2.71,0-.57.18-1.1.48-1.54.76-1.1,1.23-2.38,1.23-3.71v-.3c0-1.34-.47-2.61-1.23-3.71-.3-.44-.48-.97-.48-1.54s.18-1.1.48-1.54c.76-1.1,1.23-2.38,1.23-3.71v-.3c0-1.34-.47-2.61-1.23-3.71-.3-.44-.48-.97-.48-1.54,0-1.61,1.39-2.89,3.04-2.71Z"/>
        <circle class="cls-2" cx="2.78" cy="2.73" r="2.73"/>
        <path class="cls-1" d="M10.89,5.45c-1.51,0-2.73-1.22-2.73-2.73s1.22-2.73,2.73-2.73h2.7c13.45,0,24.35,10.9,24.35,24.35,0,13.45-10.9,24.35-24.35,24.35h-2.7c-1.51,0-2.73-1.22-2.73-2.73s1.22-2.73,2.73-2.73h2.7c10.43,0,18.89-8.46,18.89-18.89S24.02,5.45,13.59,5.45h-2.7ZM11.07,37.88h2.52c7.48,0,13.54-6.06,13.54-13.54s-6.06-13.54-13.54-13.54H2.73c-1.51,0-2.73,1.22-2.73,2.73s1.22,2.73,2.73,2.73h10.86c4.46,0,8.08,3.62,8.08,8.08s-3.62,8.08-8.08,8.08h-2.52c-1.51,0-2.73,1.22-2.73,2.73s1.22,2.73,2.73,2.73Z"/>
      </g>
    </g>
  </g>
</svg>