<?xml version="1.0" encoding="UTF-8"?>
<svg id="_图层_2" data-name="图层 2" xmlns="http://www.w3.org/2000/svg" viewBox="0 0 156.67 156.66">
  <defs>
    <style>
      .cls-1 {
        fill: #00332f;
      }
    </style>
  </defs>
  <g id="_图层_5" data-name="图层 5">
    <path class="cls-1" d="M106.17,81.83c-1.74,13.84-13.56,24.56-27.83,24.57h-.02c-14.28,0-26.1-10.75-27.82-24.57h-9.42c1.77,19,17.8,33.91,37.25,33.92,19.45,0,35.49-14.92,37.26-33.92h-9.42ZM106.17,81.83c-1.74,13.84-13.56,24.56-27.83,24.57h-.02c-14.28,0-26.1-10.75-27.82-24.57h-9.42c1.77,19,17.8,33.91,37.25,33.92,19.45,0,35.49-14.92,37.26-33.92h-9.42ZM106.17,81.83c-1.74,13.84-13.56,24.56-27.83,24.57h-.02c-14.28,0-26.1-10.75-27.82-24.57h-9.42c1.77,19,17.8,33.91,37.25,33.92,19.45,0,35.49-14.92,37.26-33.92h-9.42ZM106.17,81.83c-1.74,13.84-13.56,24.56-27.83,24.57h-.02c-14.28,0-26.1-10.75-27.82-24.57h-9.42c1.77,19,17.8,33.91,37.25,33.92,19.45,0,35.49-14.92,37.26-33.92h-9.42ZM78.34,0C35.14,0,0,35.14,0,78.33s35.14,78.33,78.34,78.33,78.33-35.13,78.33-78.33S121.53,0,78.34,0ZM127.1,127.11c-13.02,13.02-30.34,20.19-48.76,20.19h0c-38.01,0-68.95-30.94-68.95-68.96,0-18.42,7.17-35.74,20.19-48.77,13.03-13.02,30.34-20.2,48.76-20.2s35.76,7.18,48.78,20.2,20.2,30.35,20.2,48.77-7.18,35.74-20.21,48.77ZM78.34,106.4h-.02c-14.28,0-26.1-10.75-27.82-24.57h-9.42c1.77,19,17.8,33.91,37.25,33.92,19.45,0,35.49-14.92,37.26-33.92h-9.42c-1.74,13.84-13.56,24.56-27.83,24.57ZM106.17,81.83c-1.74,13.84-13.56,24.56-27.83,24.57h-.02c-14.28,0-26.1-10.75-27.82-24.57h-9.42c1.77,19,17.8,33.91,37.25,33.92,19.45,0,35.49-14.92,37.26-33.92h-9.42ZM106.17,81.83c-1.74,13.84-13.56,24.56-27.83,24.57h-.02c-14.28,0-26.1-10.75-27.82-24.57h-9.42c1.77,19,17.8,33.91,37.25,33.92,19.45,0,35.49-14.92,37.26-33.92h-9.42Z"/>
  </g>
</svg>