<?xml version="1.0" encoding="UTF-8"?>
<svg id="_图层_2" data-name="图层 2" xmlns="http://www.w3.org/2000/svg" viewBox="0 0 85.85 85.85">
  <defs>
    <style>
      .cls-1 {
        fill: #56d8d1;
      }
    </style>
  </defs>
  <g id="_图层_1-2" data-name="图层 1">
    <g>
      <path class="cls-1" d="M64.67,21.05c-2-2.7-5.25-4.39-8.93-4.62-3.2-.19-6.78.4-10.68,1.72-.21.07-.42.15-.64.23-.59.22-1.15.43-1.49.44-.45-.01-1-.22-1.59-.44-.21-.08-.43-.16-.64-.23-3.89-1.32-7.49-1.91-10.68-1.72-3.67.23-6.92,1.91-8.92,4.62-2.94,3.97-2.05,8.72-1.12,11.95.42,1.45,1,2.75,1.56,4.01.77,1.72,1.49,3.35,1.7,5.17.15,1.28-.14,2.65-.44,4.11-.22,1.07-.45,2.18-.52,3.33-.4,6.47,1.16,13.08,4.41,18.59.97,1.69,2.86,2.62,4.79,2.36,1.96-.26,3.5-1.63,4.02-3.56l.19-.7c.71-2.63,1.44-5.35,2.52-7.83.85-1.98,1.91-4.23,3.58-5.73.27-.24.63-.54.96-.49.09,0,.17,0,.26,0,.32-.05.69.26.96.49,1.68,1.5,2.73,3.74,3.58,5.73,1.07,2.47,1.8,5.19,2.51,7.81l.19.72c.52,1.94,2.06,3.3,4.02,3.56.22.03.44.04.66.04,1.69,0,3.24-.88,4.13-2.4,3.25-5.52,4.81-12.12,4.41-18.6-.07-1.15-.3-2.26-.52-3.33-.3-1.46-.58-2.83-.44-4.11.21-1.83.94-3.45,1.7-5.17.56-1.26,1.14-2.56,1.56-4.01.93-3.23,1.82-7.97-1.12-11.95h0ZM62.52,32.07c-.35,1.23-.86,2.36-1.4,3.57-.84,1.88-1.71,3.82-1.97,6.17-.21,1.81.14,3.52.48,5.18.21,1,.4,1.95.46,2.86.36,5.72-1.08,11.8-3.95,16.67-.27.51-.83.8-1.41.71-.59-.08-1.06-.51-1.19-1.09l-.19-.72c-.74-2.74-1.51-5.58-2.67-8.27-1-2.32-2.25-4.95-4.44-6.91-1.01-.91-2.08-1.36-3.18-1.36-.06,0-.12,0-.18,0-1.19-.05-2.3.41-3.36,1.36-2.19,1.96-3.44,4.59-4.44,6.91-1.16,2.7-1.93,5.54-2.67,8.29l-.19.7c-.13.58-.61,1.01-1.19,1.09-.27.04-.96.04-1.4-.71-2.87-4.87-4.31-10.95-3.95-16.67.06-.91.25-1.86.46-2.86.34-1.65.69-3.36.48-5.18-.27-2.34-1.14-4.28-1.98-6.16-.54-1.2-1.04-2.34-1.4-3.57-1.17-4.09-.99-6.87.59-9.01,1.4-1.89,3.73-3.08,6.39-3.24,2.74-.16,5.91.36,9.38,1.55l.56.2c.78.29,1.67.62,2.78.65,1.01-.03,1.89-.36,2.67-.65l.55-.2c3.47-1.18,6.62-1.69,9.37-1.55,2.67.17,5,1.35,6.4,3.24,1.58,2.14,1.76,4.92.59,9.01h0ZM30.98,29.96h3.4v-3.39h-3.4v3.39h0ZM37.78,29.96h3.4v-3.39h-3.4v3.39h0ZM37.78,36.73h3.4v-3.39h-3.4v3.39h0ZM30.98,36.73h3.4v-3.39h-3.4v3.39h0Z"/>
      <path class="cls-1" d="M42.92,85.85C19.26,85.85,0,66.59,0,42.92S19.26,0,42.92,0s42.92,19.26,42.92,42.92-19.26,42.93-42.92,42.93ZM42.92,3.1C20.96,3.1,3.1,20.96,3.1,42.92s17.87,39.83,39.83,39.83,39.83-17.87,39.83-39.83S64.89,3.1,42.92,3.1Z"/>
    </g>
  </g>
</svg>