<?xml version="1.0" encoding="UTF-8"?>
<svg id="_图层_2" data-name="图层 2" xmlns="http://www.w3.org/2000/svg" viewBox="0 0 61.84 39.78">
  <defs>
    <style>
      .cls-1 {
        fill: #6e6f6c;
      }
    </style>
  </defs>
  <g id="_图层_1-2" data-name="图层 1">
    <g>
      <path class="cls-1" d="M32.26,39.56c-.83.02-1.53-.64-1.55-1.47,0-.03,0-.05,0-.08-.44-7.07-6.63-12.82-13.7-12.82s-13.26,5.52-13.7,12.82c0,.89-.88,1.55-1.55,1.55-.41,0-.8-.17-1.11-.44-.44-.44-.66-.88-.66-1.33.44-6.85,5.08-12.6,11.49-14.81-4.86-2.65-7.51-7.96-6.19-13.48C6.41,5.3,9.72,1.77,14.14.88c.89-.22,1.77-.22,2.87-.22,6.63,0,11.93,5.3,11.93,11.93,0,4.42-2.43,8.62-6.41,10.61,6.41,2.21,11.05,7.96,11.49,14.81,0,.44-.22.89-.44,1.33-.44,0-.66.22-1.33.22ZM17.02,3.76c-4.86,0-8.62,3.98-8.62,8.62s3.98,8.62,8.62,8.62,8.62-3.98,8.62-8.62-3.76-8.62-8.62-8.62ZM33.15,20.77c-.96.01-1.75-.75-1.77-1.72,0-.02,0-.03,0-.05,0-1.11.66-1.77,1.77-1.77h12.38c.88,0,1.77.66,1.77,1.77s-.66,1.77-1.77,1.77h-12.38,0ZM33.15,13.48c-.96.01-1.75-.75-1.77-1.72,0-.02,0-.03,0-.05,0-1.11.66-1.77,1.77-1.77h12.38c.88,0,1.77.66,1.77,1.77s-.66,1.77-1.77,1.77h-12.38,0ZM49.5,0h-21.51c-.84.02-1.5.71-1.48,1.55v.07c.02.84.71,1.5,1.55,1.48h21.44c.23.02.42.2.44.44v22.8l3.09-3.01V3.53c0-1.99-1.55-3.53-3.53-3.53ZM49.94,33.82v2.42c-.02.24-.21.42-.44.44h-9.36c-.84.02-1.5.71-1.47,1.55v.07c.02.84.71,1.5,1.55,1.47h9.28c1.99,0,3.53-1.55,3.53-3.53v-5.51l-3.09,3.09Z"/>
      <path class="cls-1" d="M54.59,19.47l2.03,2.03-6.88,6.88-4.64-4.64c-.55-.55-1.44-.55-1.99,0l-8.46,8.48c-.55.55-.55,1.44,0,1.99s1.44.55,1.99,0l7.46-7.48,4.64,4.64c.55.55,1.44.55,1.99,0l7.88-7.87,2.03,2.03c.44.44,1.2.13,1.2-.49v-6.05c0-.39-.31-.71-.71-.71h-6.05c-.62-.01-.93.75-.49,1.18h0Z"/>
    </g>
  </g>
</svg>