<?xml version="1.0" encoding="UTF-8"?>
<svg id="_图层_2" data-name="图层 2" xmlns="http://www.w3.org/2000/svg" viewBox="0 0 85.85 85.85">
  <defs>
    <style>
      .cls-1 {
        fill: #56d8d1;
      }
    </style>
  </defs>
  <g id="_图层_1-2" data-name="图层 1">
    <g>
      <path class="cls-1" d="M67.69,18.73c-4-4.01-10.49-4.01-14.5,0l-31.15,31.17c-3.54,3.54-6.62,17.55-4.83,19.35,1.87,1.87,15.78-1.29,19.33-4.84l31.15-31.17c4-4,4-10.5,0-14.51ZM25.51,51.21l25.24-25.26,3.69,3.69-24.51,24.51-.91-.88c-1.03-1.01-2.29-1.64-3.62-1.93.04-.04.08-.1.11-.14ZM20.23,66.25c-.79-.79,1.15-7.6,3.31-11.96,1.52.39,2.98,1.13,4.19,2.31l1.42,1.38c1.49,1.45,2.37,3.27,2.64,5.13-4.37,2.07-10.83,3.87-11.56,3.14ZM35.24,60.96c-.14.15-.32.29-.51.44-.11-1.7-.83-3.37-2.16-4.67l-.21-.21,24.48-24.48,3.66,3.65-25.24,25.26ZM65.3,30.86l-2.43,2.44-9.74-9.74,2.44-2.45c2.69-2.69,7.04-2.69,9.73,0,2.69,2.69,2.69,7.05,0,9.74Z"/>
      <path class="cls-1" d="M42.92,85.85C19.26,85.85,0,66.59,0,42.92S19.26,0,42.92,0s42.92,19.26,42.92,42.92-19.26,42.93-42.92,42.93ZM42.92,3.1C20.96,3.1,3.1,20.96,3.1,42.92s17.87,39.83,39.83,39.83,39.83-17.87,39.83-39.83S64.89,3.1,42.92,3.1Z"/>
    </g>
  </g>
</svg>