<?xml version="1.0" encoding="UTF-8"?>
<svg id="_图层_2" data-name="图层 2" xmlns="http://www.w3.org/2000/svg" viewBox="0 0 42.53 42.53">
  <defs>
    <style>
      .cls-1 {
        fill: #6e6f6c;
      }
    </style>
  </defs>
  <g id="_图层_1-2" data-name="图层 1">
    <path class="cls-1" d="M20.38,24.81c3.42,0,6.2,2.39,6.2,5.32,0,1.37-.62,2.6-1.61,3.54.99.94,1.61,2.18,1.61,3.54,0,2.93-2.78,5.32-6.2,5.32s-6.2-2.39-6.2-5.32h3.54c0,.94,1.24,1.77,2.66,1.77s2.66-.83,2.66-1.77-1.24-1.77-2.66-1.77h-2.66v-3.54h2.66c1.42,0,2.66-.83,2.66-1.77s-1.24-1.77-2.66-1.77-2.66.83-2.66,1.77h-3.54c0-2.93,2.78-5.32,6.2-5.32ZM33.67,24.81c4.89,0,8.86,3.98,8.86,8.86s-3.98,8.86-8.86,8.86h-5.32v-17.72h5.32ZM33.67,28.35h-1.77v10.63h1.77c2.93,0,5.32-2.39,5.32-5.32s-2.39-5.32-5.32-5.32ZM20.66.11c.39-.14.82-.14,1.21,0l19.49,7.09s0,0,.01,0c.14.05.27.12.4.21.01,0,.02.02.03.03.04.03.07.06.11.1.09.08.17.16.24.25.03.04.06.09.09.14.06.1.11.2.15.3.02.05.04.09.05.14.05.16.08.32.08.49v15.95l-3.54-1.77v-11.65l-15.95,5.8v5.85h-3.54v-5.85L3.54,11.39v19.85l8.86,3.8v3.85l-11.33-4.86c-.65-.28-1.07-.92-1.07-1.63V8.86c0-.17.03-.33.08-.49.01-.05.04-.09.05-.14.04-.11.09-.21.15-.3.03-.05.06-.09.09-.14.07-.09.15-.17.24-.25.04-.03.07-.07.11-.1.01,0,.02-.02.03-.03.12-.09.26-.16.4-.21,0,0,0,0,.01,0L20.66.11ZM21.27,3.66l-14.31,5.2,14.31,5.2,14.31-5.2-14.31-5.2h0Z"/>
  </g>
</svg>