<?xml version="1.0" encoding="UTF-8"?>
<svg id="_图层_2" data-name="图层 2" xmlns="http://www.w3.org/2000/svg" viewBox="0 0 44.17 44.18">
  <defs>
    <style>
      .cls-1 {
        fill: #6e6f6c;
      }
    </style>
  </defs>
  <g id="_图层_1-2" data-name="图层 1">
    <path class="cls-1" d="M35.24,33.84h-5.1l-12.53-14.1,9.28-6.12c1.06-.71,1.94-1.77,2.46-2.99l.12-.28h6.63l3.48,1.74c.28.14.57.14.73.14.26,0,.56-.15.88-.31l2.41-1.85c.26-.19.44-.54.5-.94.06-.39-.02-.78-.22-1.03-.19-.26-.54-.44-.93-.5-.39-.06-.78.03-1.04.21l-1.72,1.3-2.22-.99v-3.99l2.22-.99,1.72,1.29c.32.24.79.35,1.2.27.23-.05.54-.18.75-.51.27-.36.37-.83.29-1.24-.04-.23-.17-.54-.5-.75l-2.49-1.9c-.36-.24-.94-.43-1.33-.17l-3.53,1.77h-11.39c-1.62-.19-3.19.06-4.48.7L3.76,12.14l-.24.21c-2.17,1.27-3.53,3.56-3.53,5.99,0,2.09.96,3.64,1.77,4.58l.16.16,9.55,10.77h-2.55c-5.01,0-8.93,3.92-8.93,8.92,0,.87.54,1.41,1.41,1.41h41.35c.87,0,1.41-.54,1.41-1.41,0-5-3.92-8.92-8.92-8.92ZM35.15,4.71v2.82h-5.13l-.11-.32c-.1-.29-.19-.62-.29-.96-.09-.32-.19-.65-.28-.92l-.2-.62h6.01ZM21.66,5.15c1.68-1.05,3.86-.48,4.96,1.28.53.83.7,1.8.51,2.72-.19.93-.76,1.73-1.6,2.25l-9.74,6.44-2.94-3.73h-.2l-.14-.19c-.59-.8-1.37-1.28-1.9-1.55l-.78-.39,11.84-6.82ZM4.09,21.3l-.19-.19c-.66-.66-1.07-1.73-1.07-2.77,0-2.33,1.89-4.23,4.23-4.23s4.23,1.9,4.23,4.23-1.9,4.23-4.23,4.23c-1.1,0-2.15-.45-2.96-1.27ZM7.66,25.38l.8-.17c2.47-.53,4.4-2.27,5.29-4.77l.27-.75,12.5,13.97h-11.4l-7.45-8.28ZM3.01,41.36l.21-.62c.83-2.47,3.07-4.08,5.71-4.08h26.31c2.64,0,4.88,1.6,5.71,4.08l.21.62H3.01Z"/>
  </g>
</svg>