<?xml version="1.0" encoding="UTF-8"?>
<svg id="_图层_2" data-name="图层 2" xmlns="http://www.w3.org/2000/svg" viewBox="0 0 194.3 168.24">
  <defs>
    <style>
      .cls-1 {
        fill: #00332f;
      }

      .cls-2 {
        stroke-width: 7.56px;
      }

      .cls-2, .cls-3 {
        fill: none;
        stroke: #00332f;
        stroke-miterlimit: 10;
      }

      .cls-3 {
        stroke-width: 5px;
      }
    </style>
  </defs>
  <g id="_图层_5" data-name="图层 5">
    <g>
      <circle class="cls-2" cx="110.18" cy="84.12" r="80.34"/>
      <path class="cls-3" d="M16.33,89.49c14.99,2.78,30.41,3.28,45.55,1.46,4.4-.53,9-1.34,12.48-4.09,3.48-2.75,5.35-8.03,2.96-11.77-2.93-4.59-10.23-4.01-14.44-.56-7.61,6.22-7.93,18.45-2.88,26.87,5.05,8.43,14.46,16.92,23.6,20.52,14.67,5.77,32.93,5.78,48.44,2.95s27.77-12.09,36.62-25.13"/>
      <rect class="cls-1" y="78.05" width="21" height="21" rx="6.5" ry="6.5"/>
      <rect class="cls-1" x="158.17" y="88.68" width="21" height="21" rx="6.5" ry="6.5"/>
    </g>
  </g>
</svg>